<?xml version="1.0" encoding="UTF-8" standalone="no"?>
<!DOCTYPE svg PUBLIC "-//W3C//DTD SVG 1.1//EN"
 "http://www.w3.org/Graphics/SVG/1.1/DTD/svg11.dtd">
<!-- Generated by graphviz version 2.43.0 (0)
 -->
<!-- Title: G Pages: 1 -->
<svg width="671pt" height="3140pt"
 viewBox="0.00 0.00 671.00 3140.41" xmlns="http://www.w3.org/2000/svg" xmlns:xlink="http://www.w3.org/1999/xlink">
<g id="graph0" class="graph" transform="scale(1 1) rotate(0) translate(4 3136.41)">
<title>G</title>
<polygon fill="white" stroke="transparent" points="-4,4 -4,-3136.41 667,-3136.41 667,4 -4,4"/>
<g id="clust1" class="cluster">
<title>cluster_level_0</title>
<polygon fill="none" stroke="#999999" stroke-dasharray="5,2" points="74,-3008.49 74,-3124.41 469,-3124.41 469,-3008.49 74,-3008.49"/>
<text text-anchor="middle" x="271.5" y="-3109.21" font-family="Helvetica,sans-Serif" font-size="14.00" fill="#999999">level 0</text>
</g>
<g id="clust2" class="cluster">
<title>cluster_level_1</title>
<polygon fill="none" stroke="#999999" stroke-dasharray="5,2" points="120,-2914.49 120,-2989.49 190,-2989.49 190,-2914.49 120,-2914.49"/>
<text text-anchor="middle" x="155" y="-2974.29" font-family="Helvetica,sans-Serif" font-size="14.00" fill="#999999">level 1</text>
</g>
<g id="clust3" class="cluster">
<title>cluster_level_2</title>
<polygon fill="none" stroke="#999999" stroke-dasharray="5,2" points="105,-2820.49 105,-2895.49 205,-2895.49 205,-2820.49 105,-2820.49"/>
<text text-anchor="middle" x="155" y="-2880.29" font-family="Helvetica,sans-Serif" font-size="14.00" fill="#999999">level 2</text>
</g>
<g id="clust4" class="cluster">
<title>cluster_level_3</title>
<polygon fill="none" stroke="#999999" stroke-dasharray="5,2" points="114,-2726.49 114,-2801.49 196,-2801.49 196,-2726.49 114,-2726.49"/>
<text text-anchor="middle" x="155" y="-2786.29" font-family="Helvetica,sans-Serif" font-size="14.00" fill="#999999">level 3</text>
</g>
<g id="clust5" class="cluster">
<title>cluster_level_4</title>
<polygon fill="none" stroke="#999999" stroke-dasharray="5,2" points="8,-2632.49 8,-2707.49 210,-2707.49 210,-2632.49 8,-2632.49"/>
<text text-anchor="middle" x="109" y="-2692.29" font-family="Helvetica,sans-Serif" font-size="14.00" fill="#999999">level 4</text>
</g>
<g id="clust6" class="cluster">
<title>cluster_level_5</title>
<polygon fill="none" stroke="#999999" stroke-dasharray="5,2" points="94,-2511.95 94,-2613.49 172,-2613.49 172,-2511.95 94,-2511.95"/>
<text text-anchor="middle" x="133" y="-2598.29" font-family="Helvetica,sans-Serif" font-size="14.00" fill="#999999">level 5</text>
</g>
<g id="clust7" class="cluster">
<title>cluster_level_6</title>
<polygon fill="none" stroke="#999999" stroke-dasharray="5,2" points="32,-2417.95 32,-2492.95 132,-2492.95 132,-2417.95 32,-2417.95"/>
<text text-anchor="middle" x="82" y="-2477.75" font-family="Helvetica,sans-Serif" font-size="14.00" fill="#999999">level 6</text>
</g>
<g id="clust8" class="cluster">
<title>cluster_level_7</title>
<polygon fill="none" stroke="#999999" stroke-dasharray="5,2" points="83,-2315.45 83,-2398.95 145,-2398.95 145,-2315.45 83,-2315.45"/>
<text text-anchor="middle" x="114" y="-2383.75" font-family="Helvetica,sans-Serif" font-size="14.00" fill="#999999">level 7</text>
</g>
<g id="clust9" class="cluster">
<title>cluster_level_8</title>
<polygon fill="none" stroke="#999999" stroke-dasharray="5,2" points="76,-2221.45 76,-2296.45 152,-2296.45 152,-2221.45 76,-2221.45"/>
<text text-anchor="middle" x="114" y="-2281.25" font-family="Helvetica,sans-Serif" font-size="14.00" fill="#999999">level 8</text>
</g>
<g id="clust10" class="cluster">
<title>cluster_level_9</title>
<polygon fill="none" stroke="#999999" stroke-dasharray="5,2" points="70,-2127.45 70,-2202.45 158,-2202.45 158,-2127.45 70,-2127.45"/>
<text text-anchor="middle" x="114" y="-2187.25" font-family="Helvetica,sans-Serif" font-size="14.00" fill="#999999">level 9</text>
</g>
<g id="clust11" class="cluster">
<title>cluster_level_10</title>
<polygon fill="none" stroke="#999999" stroke-dasharray="5,2" points="76,-2033.45 76,-2108.45 152,-2108.45 152,-2033.45 76,-2033.45"/>
<text text-anchor="middle" x="114" y="-2093.25" font-family="Helvetica,sans-Serif" font-size="14.00" fill="#999999">level 10</text>
</g>
<g id="clust12" class="cluster">
<title>cluster_level_11</title>
<polygon fill="none" stroke="#999999" stroke-dasharray="5,2" points="19,-1911.45 19,-2014.45 209,-2014.45 209,-1911.45 19,-1911.45"/>
<text text-anchor="middle" x="114" y="-1999.25" font-family="Helvetica,sans-Serif" font-size="14.00" fill="#999999">level 11</text>
</g>
<g id="clust13" class="cluster">
<title>cluster_level_12</title>
<polygon fill="none" stroke="#999999" stroke-dasharray="5,2" points="75,-1817.45 75,-1892.45 153,-1892.45 153,-1817.45 75,-1817.45"/>
<text text-anchor="middle" x="114" y="-1877.25" font-family="Helvetica,sans-Serif" font-size="14.00" fill="#999999">level 12</text>
</g>
<g id="clust14" class="cluster">
<title>cluster_level_13</title>
<polygon fill="none" stroke="#999999" stroke-dasharray="5,2" points="19,-1671.45 19,-1798.45 209,-1798.45 209,-1671.45 19,-1671.45"/>
<text text-anchor="middle" x="114" y="-1783.25" font-family="Helvetica,sans-Serif" font-size="14.00" fill="#999999">level 13</text>
</g>
<g id="clust15" class="cluster">
<title>cluster_level_14</title>
<polygon fill="none" stroke="#999999" stroke-dasharray="5,2" points="19,-1549.45 19,-1652.45 209,-1652.45 209,-1549.45 19,-1549.45"/>
<text text-anchor="middle" x="114" y="-1637.25" font-family="Helvetica,sans-Serif" font-size="14.00" fill="#999999">level 14</text>
</g>
<g id="clust16" class="cluster">
<title>cluster_level_15</title>
<polygon fill="none" stroke="#999999" stroke-dasharray="5,2" points="75,-1455.45 75,-1530.45 153,-1530.45 153,-1455.45 75,-1455.45"/>
<text text-anchor="middle" x="114" y="-1515.25" font-family="Helvetica,sans-Serif" font-size="14.00" fill="#999999">level 15</text>
</g>
<g id="clust17" class="cluster">
<title>cluster_level_16</title>
<polygon fill="none" stroke="#999999" stroke-dasharray="5,2" points="69,-1361.45 69,-1436.45 159,-1436.45 159,-1361.45 69,-1361.45"/>
<text text-anchor="middle" x="114" y="-1421.25" font-family="Helvetica,sans-Serif" font-size="14.00" fill="#999999">level 16</text>
</g>
<g id="clust18" class="cluster">
<title>cluster_level_17</title>
<polygon fill="none" stroke="#999999" stroke-dasharray="5,2" points="48,-1267.45 48,-1342.45 180,-1342.45 180,-1267.45 48,-1267.45"/>
<text text-anchor="middle" x="114" y="-1327.25" font-family="Helvetica,sans-Serif" font-size="14.00" fill="#999999">level 17</text>
</g>
<g id="clust19" class="cluster">
<title>cluster_level_18</title>
<polygon fill="none" stroke="#999999" stroke-dasharray="5,2" points="63,-1173.45 63,-1248.45 165,-1248.45 165,-1173.45 63,-1173.45"/>
<text text-anchor="middle" x="114" y="-1233.25" font-family="Helvetica,sans-Serif" font-size="14.00" fill="#999999">level 18</text>
</g>
<g id="clust20" class="cluster">
<title>cluster_level_19</title>
<polygon fill="none" stroke="#999999" stroke-dasharray="5,2" points="64,-1071.45 64,-1154.45 164,-1154.45 164,-1071.45 64,-1071.45"/>
<text text-anchor="middle" x="114" y="-1139.25" font-family="Helvetica,sans-Serif" font-size="14.00" fill="#999999">level 19</text>
</g>
<g id="clust21" class="cluster">
<title>cluster_level_20</title>
<polygon fill="none" stroke="#999999" stroke-dasharray="5,2" points="134,-949.45 134,-1052.45 332,-1052.45 332,-949.45 134,-949.45"/>
<text text-anchor="middle" x="233" y="-1037.25" font-family="Helvetica,sans-Serif" font-size="14.00" fill="#999999">level 20</text>
</g>
<g id="clust22" class="cluster">
<title>cluster_level_21</title>
<polygon fill="none" stroke="#999999" stroke-dasharray="5,2" points="134,-827.45 134,-930.45 332,-930.45 332,-827.45 134,-827.45"/>
<text text-anchor="middle" x="233" y="-915.25" font-family="Helvetica,sans-Serif" font-size="14.00" fill="#999999">level 21</text>
</g>
<g id="clust23" class="cluster">
<title>cluster_level_22</title>
<polygon fill="none" stroke="#999999" stroke-dasharray="5,2" points="272,-733.45 272,-808.45 360,-808.45 360,-733.45 272,-733.45"/>
<text text-anchor="middle" x="316" y="-793.25" font-family="Helvetica,sans-Serif" font-size="14.00" fill="#999999">level 22</text>
</g>
<g id="clust24" class="cluster">
<title>cluster_level_23</title>
<polygon fill="none" stroke="#999999" stroke-dasharray="5,2" points="266,-639.45 266,-714.45 366,-714.45 366,-639.45 266,-639.45"/>
<text text-anchor="middle" x="316" y="-699.25" font-family="Helvetica,sans-Serif" font-size="14.00" fill="#999999">level 23</text>
</g>
<g id="clust25" class="cluster">
<title>cluster_level_24</title>
<polygon fill="none" stroke="#999999" stroke-dasharray="5,2" points="266,-545.45 266,-620.45 366,-620.45 366,-545.45 266,-545.45"/>
<text text-anchor="middle" x="316" y="-605.25" font-family="Helvetica,sans-Serif" font-size="14.00" fill="#999999">level 24</text>
</g>
<g id="clust26" class="cluster">
<title>cluster_level_25</title>
<polygon fill="none" stroke="#999999" stroke-dasharray="5,2" points="245,-451.45 245,-526.45 387,-526.45 387,-451.45 245,-451.45"/>
<text text-anchor="middle" x="316" y="-511.25" font-family="Helvetica,sans-Serif" font-size="14.00" fill="#999999">level 25</text>
</g>
<g id="clust27" class="cluster">
<title>cluster_level_26</title>
<polygon fill="none" stroke="#999999" stroke-dasharray="5,2" points="266,-357.45 266,-432.45 366,-432.45 366,-357.45 266,-357.45"/>
<text text-anchor="middle" x="316" y="-417.25" font-family="Helvetica,sans-Serif" font-size="14.00" fill="#999999">level 26</text>
</g>
<g id="clust28" class="cluster">
<title>cluster_level_27</title>
<polygon fill="none" stroke="#999999" stroke-dasharray="5,2" points="206,-263.45 206,-338.45 408,-338.45 408,-263.45 206,-263.45"/>
<text text-anchor="middle" x="307" y="-323.25" font-family="Helvetica,sans-Serif" font-size="14.00" fill="#999999">level 27</text>
</g>
<g id="clust29" class="cluster">
<title>cluster_level_28</title>
<polygon fill="none" stroke="#999999" stroke-dasharray="5,2" points="277,-142.91 277,-244.45 355,-244.45 355,-142.91 277,-142.91"/>
<text text-anchor="middle" x="316" y="-229.25" font-family="Helvetica,sans-Serif" font-size="14.00" fill="#999999">level 28</text>
</g>
<g id="clust30" class="cluster">
<title>cluster_level_29</title>
<polygon fill="none" stroke="#999999" stroke-dasharray="5,2" points="235,-8 235,-123.91 397,-123.91 397,-8 235,-8"/>
<text text-anchor="middle" x="316" y="-108.71" font-family="Helvetica,sans-Serif" font-size="14.00" fill="#999999">level 29</text>
</g>
<!-- linear_1 -->
<g id="node1" class="node">
<title>linear_1</title>
<polygon fill="#aed6f1" stroke="black" points="81.66,-3043.08 155,-3016.53 228.34,-3043.08 228.27,-3086.03 81.73,-3086.03 81.66,-3043.08"/>
<text text-anchor="middle" x="155" y="-3064.15" font-family="Helvetica,sans-Serif" font-size="11.00">linear</text>
<text text-anchor="middle" x="155" y="-3052.15" font-family="Helvetica,sans-Serif" font-size="11.00">#input</text>
<text text-anchor="middle" x="155" y="-3040.15" font-family="Helvetica,sans-Serif" font-size="11.00">[24 params]</text>
</g>
<!-- gelu_2 -->
<g id="node3" class="node">
<title>gelu_2</title>
<ellipse fill="#fdebd0" stroke="black" cx="155" cy="-2940.49" rx="27" ry="18"/>
<text text-anchor="middle" x="155" y="-2937.69" font-family="Helvetica,sans-Serif" font-size="11.00">gelu</text>
</g>
<!-- linear_1&#45;&gt;gelu_2 -->
<g id="edge1" class="edge">
<title>linear_1&#45;&gt;gelu_2</title>
<path fill="none" stroke="#2c3e50" d="M155,-3016.5C155,-3000.92 155,-2983.17 155,-2968.85"/>
<polygon fill="#2c3e50" stroke="#2c3e50" points="158.5,-2968.65 155,-2958.65 151.5,-2968.65 158.5,-2968.65"/>
</g>
<!-- gate_22 -->
<g id="node23" class="node">
<title>gate_22</title>
<polygon fill="#f5cba7" stroke="black" points="233,-1021.45 142,-989.45 233,-957.45 324,-989.45 233,-1021.45"/>
<text text-anchor="middle" x="233" y="-992.65" font-family="Helvetica,sans-Serif" font-size="11.00">gate</text>
<text text-anchor="middle" x="233" y="-980.65" font-family="Helvetica,sans-Serif" font-size="11.00">[162 params]</text>
</g>
<!-- linear_1&#45;&gt;gate_22 -->
<g id="edge24" class="edge">
<title>linear_1&#45;&gt;gate_22</title>
<path fill="none" stroke="#2980b9" stroke-dasharray="5,2" d="M186.32,-3027.77C207.64,-3006.89 232,-2975.57 232,-2941.49 232,-2941.49 232,-2941.49 232,-1100.45 232,-1077.74 232.22,-1052.4 232.45,-1031.77"/>
<polygon fill="#2980b9" stroke="#2980b9" points="235.95,-1031.79 232.56,-1021.75 228.95,-1031.71 235.95,-1031.79"/>
<text text-anchor="middle" x="244.5" y="-2057.25" font-family="Helvetica,sans-Serif" font-size="9.00" fill="#2980b9">input</text>
</g>
<!-- state_read_memory_25 -->
<g id="node2" class="node">
<title>state_read_memory_25</title>
<polygon fill="#f9e79f" stroke="black" points="354,-3072.95 246.69,-3054.95 354,-3036.95 461.31,-3054.95 354,-3072.95"/>
<text text-anchor="middle" x="354" y="-3052.15" font-family="Helvetica,sans-Serif" font-size="11.00">state_read_memory</text>
</g>
<!-- state_add_24 -->
<g id="node25" class="node">
<title>state_add_24</title>
<polygon fill="#eaecee" stroke="black" points="351.5,-777.45 280.5,-777.45 280.5,-741.45 351.5,-741.45 351.5,-777.45"/>
<text text-anchor="middle" x="316" y="-762.65" font-family="Helvetica,sans-Serif" font-size="11.00">state_add</text>
<text text-anchor="middle" x="316" y="-750.65" font-family="Helvetica,sans-Serif" font-size="11.00">#memory</text>
</g>
<!-- state_read_memory_25&#45;&gt;state_add_24 -->
<g id="edge28" class="edge">
<title>state_read_memory_25&#45;&gt;state_add_24</title>
<path fill="none" stroke="#2980b9" stroke-dasharray="5,2" d="M353.75,-3036.8C353.46,-3014.75 353,-2975.27 353,-2941.49 353,-2941.49 353,-2941.49 353,-866.45 353,-838.06 341.02,-807.65 330.69,-786.72"/>
<polygon fill="#2980b9" stroke="#2980b9" points="333.79,-785.1 326.11,-777.81 327.57,-788.3 333.79,-785.1"/>
<text text-anchor="middle" x="372" y="-1949.25" font-family="Helvetica,sans-Serif" font-size="9.00" fill="#2980b9">memory</text>
</g>
<!-- layernorm_3 -->
<g id="node4" class="node">
<title>layernorm_3</title>
<polygon fill="#d5f5e3" stroke="black" points="197,-2864.49 113,-2864.49 113,-2828.49 197,-2828.49 197,-2864.49"/>
<text text-anchor="middle" x="155" y="-2849.69" font-family="Helvetica,sans-Serif" font-size="11.00">layernorm</text>
<text text-anchor="middle" x="155" y="-2837.69" font-family="Helvetica,sans-Serif" font-size="11.00">[16 params]</text>
</g>
<!-- gelu_2&#45;&gt;layernorm_3 -->
<g id="edge2" class="edge">
<title>gelu_2&#45;&gt;layernorm_3</title>
<path fill="none" stroke="#2c3e50" d="M155,-2922.19C155,-2908.95 155,-2890.44 155,-2875.16"/>
<polygon fill="#2c3e50" stroke="#2c3e50" points="158.5,-2874.72 155,-2864.72 151.5,-2874.72 158.5,-2874.72"/>
</g>
<!-- rmsnorm_4 -->
<g id="node5" class="node">
<title>rmsnorm_4</title>
<polygon fill="#d5f5e3" stroke="black" points="188,-2770.49 122,-2770.49 122,-2734.49 188,-2734.49 188,-2770.49"/>
<text text-anchor="middle" x="155" y="-2749.69" font-family="Helvetica,sans-Serif" font-size="11.00">rmsnorm</text>
</g>
<!-- layernorm_3&#45;&gt;rmsnorm_4 -->
<g id="edge3" class="edge">
<title>layernorm_3&#45;&gt;rmsnorm_4</title>
<path fill="none" stroke="#2c3e50" d="M155,-2828.19C155,-2814.95 155,-2796.44 155,-2781.16"/>
<polygon fill="#2c3e50" stroke="#2c3e50" points="158.5,-2780.72 155,-2770.72 151.5,-2780.72 158.5,-2780.72"/>
</g>
<!-- graph_6 -->
<g id="node6" class="node">
<title>graph_6</title>
<polygon fill="#eaecee" stroke="black" points="100,-2676.49 16,-2676.49 16,-2640.49 100,-2640.49 100,-2676.49"/>
<text text-anchor="middle" x="58" y="-2661.69" font-family="Helvetica,sans-Serif" font-size="11.00">graph</text>
<text text-anchor="middle" x="58" y="-2649.69" font-family="Helvetica,sans-Serif" font-size="11.00">[88 params]</text>
</g>
<!-- rmsnorm_4&#45;&gt;graph_6 -->
<g id="edge5" class="edge">
<title>rmsnorm_4&#45;&gt;graph_6</title>
<path fill="none" stroke="#2c3e50" d="M136.76,-2734.19C121.72,-2719.92 100.22,-2699.53 83.48,-2683.66"/>
<polygon fill="#2c3e50" stroke="#2c3e50" points="85.83,-2681.06 76.16,-2676.72 81.01,-2686.14 85.83,-2681.06"/>
</g>
<!-- graph_5 -->
<g id="node7" class="node">
<title>graph_5</title>
<polygon fill="#eaecee" stroke="black" points="202,-2676.49 118,-2676.49 118,-2640.49 202,-2640.49 202,-2676.49"/>
<text text-anchor="middle" x="160" y="-2661.69" font-family="Helvetica,sans-Serif" font-size="11.00">graph</text>
<text text-anchor="middle" x="160" y="-2649.69" font-family="Helvetica,sans-Serif" font-size="11.00">[88 params]</text>
</g>
<!-- rmsnorm_4&#45;&gt;graph_5 -->
<g id="edge4" class="edge">
<title>rmsnorm_4&#45;&gt;graph_5</title>
<path fill="none" stroke="#2c3e50" d="M155.94,-2734.19C156.67,-2720.82 157.69,-2702.08 158.52,-2686.71"/>
<polygon fill="#2c3e50" stroke="#2c3e50" points="162.02,-2686.89 159.06,-2676.72 155.03,-2686.51 162.02,-2686.89"/>
</g>
<!-- merge_7 -->
<g id="node8" class="node">
<title>merge_7</title>
<ellipse fill="#d5dbdb" stroke="black" cx="133" cy="-2551.22" rx="31.04" ry="31.04"/>
<text text-anchor="middle" x="133" y="-2548.42" font-family="Helvetica,sans-Serif" font-size="11.00">merge</text>
</g>
<!-- graph_6&#45;&gt;merge_7 -->
<g id="edge7" class="edge">
<title>graph_6&#45;&gt;merge_7</title>
<path fill="none" stroke="#2c3e50" d="M70.38,-2640.11C80.9,-2625.35 96.28,-2603.76 109.17,-2585.67"/>
<polygon fill="#2c3e50" stroke="#2c3e50" points="112.31,-2587.29 115.26,-2577.12 106.61,-2583.23 112.31,-2587.29"/>
</g>
<!-- graph_5&#45;&gt;merge_7 -->
<g id="edge6" class="edge">
<title>graph_5&#45;&gt;merge_7</title>
<path fill="none" stroke="#2c3e50" d="M155.54,-2640.11C152.17,-2626.95 147.4,-2608.36 143.12,-2591.67"/>
<polygon fill="#2c3e50" stroke="#2c3e50" points="146.4,-2590.4 140.53,-2581.58 139.62,-2592.14 146.4,-2590.4"/>
</g>
<!-- linear_8 -->
<g id="node9" class="node">
<title>linear_8</title>
<polygon fill="#eaecee" stroke="black" points="124,-2461.95 40,-2461.95 40,-2425.95 124,-2425.95 124,-2461.95"/>
<text text-anchor="middle" x="82" y="-2447.15" font-family="Helvetica,sans-Serif" font-size="11.00">linear</text>
<text text-anchor="middle" x="82" y="-2435.15" font-family="Helvetica,sans-Serif" font-size="11.00">[72 params]</text>
</g>
<!-- merge_7&#45;&gt;linear_8 -->
<g id="edge8" class="edge">
<title>merge_7&#45;&gt;linear_8</title>
<path fill="none" stroke="#2c3e50" d="M119.73,-2522.84C112.01,-2506.9 102.32,-2486.9 94.7,-2471.17"/>
<polygon fill="#2c3e50" stroke="#2c3e50" points="97.77,-2469.47 90.26,-2461.99 91.47,-2472.52 97.77,-2469.47"/>
</g>
<!-- add_9 -->
<g id="node10" class="node">
<title>add_9</title>
<ellipse fill="#d5dbdb" stroke="black" cx="114" cy="-2345.7" rx="22.5" ry="22.5"/>
<text text-anchor="middle" x="114" y="-2342.9" font-family="Helvetica,sans-Serif" font-size="11.00">add</text>
</g>
<!-- merge_7&#45;&gt;add_9 -->
<g id="edge9" class="edge">
<title>merge_7&#45;&gt;add_9</title>
<path fill="none" stroke="#2c3e50" d="M134.88,-2519.92C135.34,-2511.22 135.77,-2501.71 136,-2492.95 136.87,-2459.63 140.97,-2450.91 136,-2417.95 133.88,-2403.91 129.54,-2388.82 125.27,-2376.16"/>
<polygon fill="#2c3e50" stroke="#2c3e50" points="128.52,-2374.87 121.9,-2366.6 121.92,-2377.19 128.52,-2374.87"/>
</g>
<!-- linear_8&#45;&gt;add_9 -->
<g id="edge10" class="edge">
<title>linear_8&#45;&gt;add_9</title>
<path fill="none" stroke="#2c3e50" d="M87.72,-2425.75C92.25,-2412.13 98.68,-2392.8 104.04,-2376.66"/>
<polygon fill="#2c3e50" stroke="#2c3e50" points="107.38,-2377.69 107.22,-2367.1 100.74,-2375.49 107.38,-2377.69"/>
</g>
<!-- dropout_10 -->
<g id="node11" class="node">
<title>dropout_10</title>
<polygon fill="#eaecee" stroke="black" points="143.5,-2265.45 84.5,-2265.45 84.5,-2229.45 143.5,-2229.45 143.5,-2265.45"/>
<text text-anchor="middle" x="114" y="-2244.65" font-family="Helvetica,sans-Serif" font-size="11.00">dropout</text>
</g>
<!-- add_9&#45;&gt;dropout_10 -->
<g id="edge11" class="edge">
<title>add_9&#45;&gt;dropout_10</title>
<path fill="none" stroke="#2c3e50" d="M114,-2323.34C114,-2309.35 114,-2290.93 114,-2275.86"/>
<polygon fill="#2c3e50" stroke="#2c3e50" points="117.5,-2275.59 114,-2265.59 110.5,-2275.59 117.5,-2275.59"/>
</g>
<!-- softclamp_11 -->
<g id="node12" class="node">
<title>softclamp_11</title>
<polygon fill="#eaecee" stroke="black" points="149.5,-2171.45 78.5,-2171.45 78.5,-2135.45 149.5,-2135.45 149.5,-2171.45"/>
<text text-anchor="middle" x="114" y="-2150.65" font-family="Helvetica,sans-Serif" font-size="11.00">softclamp</text>
</g>
<!-- dropout_10&#45;&gt;softclamp_11 -->
<g id="edge12" class="edge">
<title>dropout_10&#45;&gt;softclamp_11</title>
<path fill="none" stroke="#2c3e50" d="M114,-2229.15C114,-2215.91 114,-2197.4 114,-2182.12"/>
<polygon fill="#2c3e50" stroke="#2c3e50" points="117.5,-2181.68 114,-2171.68 110.5,-2181.68 117.5,-2181.68"/>
</g>
<!-- softplus_12 -->
<g id="node13" class="node">
<title>softplus_12</title>
<polygon fill="#eaecee" stroke="black" points="144,-2077.45 84,-2077.45 84,-2041.45 144,-2041.45 144,-2077.45"/>
<text text-anchor="middle" x="114" y="-2056.65" font-family="Helvetica,sans-Serif" font-size="11.00">softplus</text>
</g>
<!-- softclamp_11&#45;&gt;softplus_12 -->
<g id="edge13" class="edge">
<title>softclamp_11&#45;&gt;softplus_12</title>
<path fill="none" stroke="#2c3e50" d="M114,-2135.15C114,-2121.91 114,-2103.4 114,-2088.12"/>
<polygon fill="#2c3e50" stroke="#2c3e50" points="117.5,-2087.68 114,-2077.68 110.5,-2087.68 117.5,-2087.68"/>
</g>
<!-- map_13 -->
<g id="node14" class="node">
<title>map_13</title>
<polygon fill="#a9cce3" stroke="black" points="201.17,-1983.45 62.5,-1983.45 26.83,-1919.45 165.5,-1919.45 201.17,-1983.45"/>
<text text-anchor="middle" x="114" y="-1954.65" font-family="Helvetica,sans-Serif" font-size="11.00">map</text>
<text text-anchor="middle" x="114" y="-1942.65" font-family="Helvetica,sans-Serif" font-size="11.00">[10 params]</text>
</g>
<!-- softplus_12&#45;&gt;map_13 -->
<g id="edge14" class="edge">
<title>softplus_12&#45;&gt;map_13</title>
<path fill="none" stroke="#2c3e50" d="M114,-2041.42C114,-2028.53 114,-2010.26 114,-1993.63"/>
<polygon fill="#2c3e50" stroke="#2c3e50" points="117.5,-1993.55 114,-1983.55 110.5,-1993.55 117.5,-1993.55"/>
</g>
<!-- reshape_14 -->
<g id="node15" class="node">
<title>reshape_14</title>
<polygon fill="#eaecee" stroke="black" points="144.5,-1861.45 83.5,-1861.45 83.5,-1825.45 144.5,-1825.45 144.5,-1861.45"/>
<text text-anchor="middle" x="114" y="-1840.65" font-family="Helvetica,sans-Serif" font-size="11.00">reshape</text>
</g>
<!-- map_13&#45;&gt;reshape_14 -->
<g id="edge15" class="edge">
<title>map_13&#45;&gt;reshape_14</title>
<path fill="none" stroke="#2c3e50" d="M114,-1919.22C114,-1904.24 114,-1886.43 114,-1871.96"/>
<polygon fill="#2c3e50" stroke="#2c3e50" points="117.5,-1871.65 114,-1861.65 110.5,-1871.65 117.5,-1871.65"/>
</g>
<!-- map_15 -->
<g id="node16" class="node">
<title>map_15</title>
<polygon fill="#a9cce3" stroke="black" points="201.17,-1767.45 62.5,-1767.45 26.83,-1679.45 165.5,-1679.45 201.17,-1767.45"/>
<text text-anchor="middle" x="114" y="-1732.65" font-family="Helvetica,sans-Serif" font-size="11.00">map</text>
<text text-anchor="middle" x="114" y="-1720.65" font-family="Helvetica,sans-Serif" font-size="11.00">#halves</text>
<text text-anchor="middle" x="114" y="-1708.65" font-family="Helvetica,sans-Serif" font-size="11.00">[20 params]</text>
</g>
<!-- reshape_14&#45;&gt;map_15 -->
<g id="edge16" class="edge">
<title>reshape_14&#45;&gt;map_15</title>
<path fill="none" stroke="#2c3e50" d="M114,-1825.3C114,-1812.69 114,-1794.82 114,-1777.62"/>
<polygon fill="#2c3e50" stroke="#2c3e50" points="117.5,-1777.62 114,-1767.62 110.5,-1777.62 117.5,-1777.62"/>
</g>
<!-- map_16 -->
<g id="node17" class="node">
<title>map_16</title>
<polygon fill="#a9cce3" stroke="black" points="201.17,-1621.45 62.5,-1621.45 26.83,-1557.45 165.5,-1557.45 201.17,-1621.45"/>
<text text-anchor="middle" x="114" y="-1592.65" font-family="Helvetica,sans-Serif" font-size="11.00">map</text>
<text text-anchor="middle" x="114" y="-1580.65" font-family="Helvetica,sans-Serif" font-size="11.00">[20 params]</text>
</g>
<!-- map_15&#45;&gt;map_16 -->
<g id="edge17" class="edge">
<title>map_15&#45;&gt;map_16</title>
<path fill="none" stroke="#2c3e50" d="M114,-1679.23C114,-1663.96 114,-1646.83 114,-1631.72"/>
<polygon fill="#2c3e50" stroke="#2c3e50" points="117.5,-1631.64 114,-1621.64 110.5,-1631.64 117.5,-1631.64"/>
</g>
<!-- reshape_17 -->
<g id="node18" class="node">
<title>reshape_17</title>
<polygon fill="#eaecee" stroke="black" points="144.5,-1499.45 83.5,-1499.45 83.5,-1463.45 144.5,-1463.45 144.5,-1499.45"/>
<text text-anchor="middle" x="114" y="-1478.65" font-family="Helvetica,sans-Serif" font-size="11.00">reshape</text>
</g>
<!-- map_16&#45;&gt;reshape_17 -->
<g id="edge18" class="edge">
<title>map_16&#45;&gt;reshape_17</title>
<path fill="none" stroke="#2c3e50" d="M114,-1557.22C114,-1542.24 114,-1524.43 114,-1509.96"/>
<polygon fill="#2c3e50" stroke="#2c3e50" points="117.5,-1509.65 114,-1499.65 110.5,-1509.65 117.5,-1509.65"/>
</g>
<!-- shape_ops_18 -->
<g id="node19" class="node">
<title>shape_ops_18</title>
<polygon fill="#eaecee" stroke="black" points="151,-1405.45 77,-1405.45 77,-1369.45 151,-1369.45 151,-1405.45"/>
<text text-anchor="middle" x="114" y="-1384.65" font-family="Helvetica,sans-Serif" font-size="11.00">shape_ops</text>
</g>
<!-- reshape_17&#45;&gt;shape_ops_18 -->
<g id="edge19" class="edge">
<title>reshape_17&#45;&gt;shape_ops_18</title>
<path fill="none" stroke="#2c3e50" d="M114,-1463.15C114,-1449.91 114,-1431.4 114,-1416.12"/>
<polygon fill="#2c3e50" stroke="#2c3e50" points="117.5,-1415.68 114,-1405.68 110.5,-1415.68 117.5,-1415.68"/>
</g>
<!-- neg_sigmoid_gate_19 -->
<g id="node20" class="node">
<title>neg_sigmoid_gate_19</title>
<polygon fill="#eaecee" stroke="black" points="171.5,-1311.45 56.5,-1311.45 56.5,-1275.45 171.5,-1275.45 171.5,-1311.45"/>
<text text-anchor="middle" x="114" y="-1290.65" font-family="Helvetica,sans-Serif" font-size="11.00">neg_sigmoid_gate</text>
</g>
<!-- shape_ops_18&#45;&gt;neg_sigmoid_gate_19 -->
<g id="edge20" class="edge">
<title>shape_ops_18&#45;&gt;neg_sigmoid_gate_19</title>
<path fill="none" stroke="#2c3e50" d="M114,-1369.15C114,-1355.91 114,-1337.4 114,-1322.12"/>
<polygon fill="#2c3e50" stroke="#2c3e50" points="117.5,-1321.68 114,-1311.68 110.5,-1321.68 117.5,-1321.68"/>
</g>
<!-- transpose_rt_20 -->
<g id="node21" class="node">
<title>transpose_rt_20</title>
<polygon fill="#eaecee" stroke="black" points="157,-1217.45 71,-1217.45 71,-1181.45 157,-1181.45 157,-1217.45"/>
<text text-anchor="middle" x="114" y="-1196.65" font-family="Helvetica,sans-Serif" font-size="11.00">transpose_rt</text>
</g>
<!-- neg_sigmoid_gate_19&#45;&gt;transpose_rt_20 -->
<g id="edge21" class="edge">
<title>neg_sigmoid_gate_19&#45;&gt;transpose_rt_20</title>
<path fill="none" stroke="#2c3e50" d="M114,-1275.15C114,-1261.91 114,-1243.4 114,-1228.12"/>
<polygon fill="#2c3e50" stroke="#2c3e50" points="117.5,-1227.68 114,-1217.68 110.5,-1227.68 117.5,-1227.68"/>
</g>
<!-- loop_21 -->
<g id="node22" class="node">
<title>loop_21</title>
<polygon fill="#d7bde2" stroke="black" points="156,-1123.45 76,-1123.45 72,-1119.45 72,-1079.45 152,-1079.45 156,-1083.45 156,-1123.45"/>
<polyline fill="none" stroke="black" points="152,-1119.45 72,-1119.45 "/>
<polyline fill="none" stroke="black" points="152,-1119.45 152,-1079.45 "/>
<polyline fill="none" stroke="black" points="152,-1119.45 156,-1123.45 "/>
<text text-anchor="middle" x="114" y="-1110.65" font-family="Helvetica,sans-Serif" font-size="11.00">loop</text>
<text text-anchor="middle" x="114" y="-1098.65" font-family="Helvetica,sans-Serif" font-size="11.00">#refined</text>
<text text-anchor="middle" x="114" y="-1086.65" font-family="Helvetica,sans-Serif" font-size="11.00">[88 params]</text>
</g>
<!-- transpose_rt_20&#45;&gt;loop_21 -->
<g id="edge22" class="edge">
<title>transpose_rt_20&#45;&gt;loop_21</title>
<path fill="none" stroke="#2c3e50" d="M114,-1181.29C114,-1168.15 114,-1149.65 114,-1133.87"/>
<polygon fill="#2c3e50" stroke="#2c3e50" points="117.5,-1133.49 114,-1123.49 110.5,-1133.49 117.5,-1133.49"/>
</g>
<!-- loop_21&#45;&gt;gate_22 -->
<g id="edge23" class="edge">
<title>loop_21&#45;&gt;gate_22</title>
<path fill="none" stroke="#2c3e50" d="M136.94,-1079.24C155.15,-1062.42 180.81,-1038.7 201.03,-1020"/>
<polygon fill="#2c3e50" stroke="#2c3e50" points="203.52,-1022.47 208.49,-1013.11 198.77,-1017.33 203.52,-1022.47"/>
</g>
<!-- switch_23 -->
<g id="node24" class="node">
<title>switch_23</title>
<polygon fill="#f5cba7" stroke="black" points="233,-899.45 142,-867.45 233,-835.45 324,-867.45 233,-899.45"/>
<text text-anchor="middle" x="233" y="-870.65" font-family="Helvetica,sans-Serif" font-size="11.00">switch</text>
<text text-anchor="middle" x="233" y="-858.65" font-family="Helvetica,sans-Serif" font-size="11.00">[160 params]</text>
</g>
<!-- loop_21&#45;&gt;switch_23 -->
<g id="edge26" class="edge">
<title>loop_21&#45;&gt;switch_23</title>
<path fill="none" stroke="#2980b9" stroke-dasharray="5,2" d="M104.19,-1079.35C91.47,-1048.62 73.54,-990.74 97,-949.45 114.03,-919.49 147.02,-899.44 176.24,-886.79"/>
<polygon fill="#2980b9" stroke="#2980b9" points="177.66,-889.99 185.57,-882.94 174.99,-883.52 177.66,-889.99"/>
<text text-anchor="middle" x="113.5" y="-987.25" font-family="Helvetica,sans-Serif" font-size="9.00" fill="#2980b9">refined</text>
</g>
<!-- gate_22&#45;&gt;switch_23 -->
<g id="edge25" class="edge">
<title>gate_22&#45;&gt;switch_23</title>
<path fill="none" stroke="#2c3e50" d="M233,-957.24C233,-942.79 233,-925.43 233,-909.91"/>
<polygon fill="#2c3e50" stroke="#2c3e50" points="236.5,-909.51 233,-899.51 229.5,-909.51 236.5,-909.51"/>
</g>
<!-- switch_23&#45;&gt;state_add_24 -->
<g id="edge27" class="edge">
<title>switch_23&#45;&gt;state_add_24</title>
<path fill="none" stroke="#2c3e50" d="M252.04,-842.14C265.29,-825.22 282.9,-802.73 296.28,-785.63"/>
<polygon fill="#2c3e50" stroke="#2c3e50" points="299.07,-787.75 302.48,-777.72 293.56,-783.44 299.07,-787.75"/>
</g>
<!-- loop_26 -->
<g id="node26" class="node">
<title>loop_26</title>
<polygon fill="#d7bde2" stroke="black" points="358,-683.45 278,-683.45 274,-679.45 274,-647.45 354,-647.45 358,-651.45 358,-683.45"/>
<polyline fill="none" stroke="black" points="354,-679.45 274,-679.45 "/>
<polyline fill="none" stroke="black" points="354,-679.45 354,-647.45 "/>
<polyline fill="none" stroke="black" points="354,-679.45 358,-683.45 "/>
<text text-anchor="middle" x="316" y="-668.65" font-family="Helvetica,sans-Serif" font-size="11.00">loop</text>
<text text-anchor="middle" x="316" y="-656.65" font-family="Helvetica,sans-Serif" font-size="11.00">[72 params]</text>
</g>
<!-- state_add_24&#45;&gt;loop_26 -->
<g id="edge29" class="edge">
<title>state_add_24&#45;&gt;loop_26</title>
<path fill="none" stroke="#2c3e50" d="M316,-741.15C316,-727.91 316,-709.4 316,-694.12"/>
<polygon fill="#2c3e50" stroke="#2c3e50" points="319.5,-693.68 316,-683.68 312.5,-693.68 319.5,-693.68"/>
</g>
<!-- state_read_state_add_24 -->
<g id="node34" class="node">
<title>state_read_state_add_24</title>
<ellipse fill="lightgrey" stroke="black" cx="571" cy="-3054.95" rx="92.01" ry="18"/>
<text text-anchor="middle" x="571" y="-3052.15" font-family="Helvetica,sans-Serif" font-size="11.00">state_read_state_add_24</text>
</g>
<!-- state_add_24&#45;&gt;state_read_state_add_24 -->
<g id="edge38" class="edge">
<title>state_add_24&#45;&gt;state_read_state_add_24</title>
<path fill="none" stroke="#e67e22" stroke-dasharray="1,5" d="M333.35,-777.51C345.02,-790.13 359.58,-808.38 367,-827.45 696.59,-1674.7 593.86,-2835.22 573.98,-3026.7"/>
<polygon fill="#e67e22" stroke="#e67e22" points="570.49,-3026.44 572.92,-3036.75 577.45,-3027.17 570.49,-3026.44"/>
<text text-anchor="middle" x="605.5" y="-1949.25" font-family="Helvetica,sans-Serif" font-size="9.00" fill="#e67e22">state</text>
</g>
<!-- loop_27 -->
<g id="node27" class="node">
<title>loop_27</title>
<polygon fill="#d7bde2" stroke="black" points="358,-589.45 278,-589.45 274,-585.45 274,-553.45 354,-553.45 358,-557.45 358,-589.45"/>
<polyline fill="none" stroke="black" points="354,-585.45 274,-585.45 "/>
<polyline fill="none" stroke="black" points="354,-585.45 354,-553.45 "/>
<polyline fill="none" stroke="black" points="354,-585.45 358,-589.45 "/>
<text text-anchor="middle" x="316" y="-574.65" font-family="Helvetica,sans-Serif" font-size="11.00">loop</text>
<text text-anchor="middle" x="316" y="-562.65" font-family="Helvetica,sans-Serif" font-size="11.00">[81 params]</text>
</g>
<!-- loop_26&#45;&gt;loop_27 -->
<g id="edge30" class="edge">
<title>loop_26&#45;&gt;loop_27</title>
<path fill="none" stroke="#2c3e50" d="M316,-647.15C316,-633.91 316,-615.4 316,-600.12"/>
<polygon fill="#2c3e50" stroke="#2c3e50" points="319.5,-599.68 316,-589.68 312.5,-599.68 319.5,-599.68"/>
</g>
<!-- log_softmax_reduce_28 -->
<g id="node28" class="node">
<title>log_softmax_reduce_28</title>
<polygon fill="#eaecee" stroke="black" points="379,-495.45 253,-495.45 253,-459.45 379,-459.45 379,-495.45"/>
<text text-anchor="middle" x="316" y="-474.65" font-family="Helvetica,sans-Serif" font-size="11.00">log_softmax_reduce</text>
</g>
<!-- loop_27&#45;&gt;log_softmax_reduce_28 -->
<g id="edge31" class="edge">
<title>loop_27&#45;&gt;log_softmax_reduce_28</title>
<path fill="none" stroke="#2c3e50" d="M316,-553.15C316,-539.91 316,-521.4 316,-506.12"/>
<polygon fill="#2c3e50" stroke="#2c3e50" points="319.5,-505.68 316,-495.68 312.5,-505.68 319.5,-505.68"/>
</g>
<!-- linear_29 -->
<g id="node29" class="node">
<title>linear_29</title>
<polygon fill="#eaecee" stroke="black" points="358,-401.45 274,-401.45 274,-365.45 358,-365.45 358,-401.45"/>
<text text-anchor="middle" x="316" y="-386.65" font-family="Helvetica,sans-Serif" font-size="11.00">linear</text>
<text text-anchor="middle" x="316" y="-374.65" font-family="Helvetica,sans-Serif" font-size="11.00">[16 params]</text>
</g>
<!-- log_softmax_reduce_28&#45;&gt;linear_29 -->
<g id="edge32" class="edge">
<title>log_softmax_reduce_28&#45;&gt;linear_29</title>
<path fill="none" stroke="#2c3e50" d="M316,-459.15C316,-445.91 316,-427.4 316,-412.12"/>
<polygon fill="#2c3e50" stroke="#2c3e50" points="319.5,-411.68 316,-401.68 312.5,-411.68 319.5,-411.68"/>
</g>
<!-- linear_30 -->
<g id="node30" class="node">
<title>linear_30</title>
<polygon fill="#eaecee" stroke="black" points="298,-307.45 214,-307.45 214,-271.45 298,-271.45 298,-307.45"/>
<text text-anchor="middle" x="256" y="-292.65" font-family="Helvetica,sans-Serif" font-size="11.00">linear</text>
<text text-anchor="middle" x="256" y="-280.65" font-family="Helvetica,sans-Serif" font-size="11.00">[72 params]</text>
</g>
<!-- linear_29&#45;&gt;linear_30 -->
<g id="edge33" class="edge">
<title>linear_29&#45;&gt;linear_30</title>
<path fill="none" stroke="#2c3e50" d="M304.71,-365.15C295.75,-351.4 283.07,-331.96 272.89,-316.35"/>
<polygon fill="#2c3e50" stroke="#2c3e50" points="275.63,-314.15 267.23,-307.68 269.77,-317.97 275.63,-314.15"/>
</g>
<!-- linear_31 -->
<g id="node31" class="node">
<title>linear_31</title>
<polygon fill="#eaecee" stroke="black" points="400,-307.45 316,-307.45 316,-271.45 400,-271.45 400,-307.45"/>
<text text-anchor="middle" x="358" y="-292.65" font-family="Helvetica,sans-Serif" font-size="11.00">linear</text>
<text text-anchor="middle" x="358" y="-280.65" font-family="Helvetica,sans-Serif" font-size="11.00">[72 params]</text>
</g>
<!-- linear_29&#45;&gt;linear_31 -->
<g id="edge34" class="edge">
<title>linear_29&#45;&gt;linear_31</title>
<path fill="none" stroke="#2c3e50" d="M323.9,-365.15C330.12,-351.53 338.89,-332.32 345.98,-316.79"/>
<polygon fill="#2c3e50" stroke="#2c3e50" points="349.17,-318.23 350.14,-307.68 342.8,-315.32 349.17,-318.23"/>
</g>
<!-- merge_32 -->
<g id="node32" class="node">
<title>merge_32</title>
<ellipse fill="#d5dbdb" stroke="black" cx="316" cy="-182.18" rx="31.04" ry="31.04"/>
<text text-anchor="middle" x="316" y="-179.38" font-family="Helvetica,sans-Serif" font-size="11.00">merge</text>
</g>
<!-- linear_30&#45;&gt;merge_32 -->
<g id="edge35" class="edge">
<title>linear_30&#45;&gt;merge_32</title>
<path fill="none" stroke="#2c3e50" d="M265.91,-271.07C274.01,-256.85 285.74,-236.27 295.81,-218.6"/>
<polygon fill="#2c3e50" stroke="#2c3e50" points="298.99,-220.1 300.9,-209.68 292.91,-216.63 298.99,-220.1"/>
</g>
<!-- linear_31&#45;&gt;merge_32 -->
<g id="edge36" class="edge">
<title>linear_31&#45;&gt;merge_32</title>
<path fill="none" stroke="#2c3e50" d="M351.06,-271.07C345.69,-257.6 338.04,-238.42 331.25,-221.42"/>
<polygon fill="#2c3e50" stroke="#2c3e50" points="334.34,-219.71 327.38,-211.72 327.84,-222.3 334.34,-219.71"/>
</g>
<!-- linear_33 -->
<g id="node33" class="node">
<title>linear_33</title>
<polygon fill="#a9dfbf" stroke="black" points="389.34,-66.33 316,-92.87 242.66,-66.33 242.73,-23.38 389.27,-23.38 389.34,-66.33"/>
<text text-anchor="middle" x="316" y="-63.66" font-family="Helvetica,sans-Serif" font-size="11.00">linear</text>
<text text-anchor="middle" x="316" y="-51.66" font-family="Helvetica,sans-Serif" font-size="11.00">#output</text>
<text text-anchor="middle" x="316" y="-39.66" font-family="Helvetica,sans-Serif" font-size="11.00">[18 params]</text>
</g>
<!-- merge_32&#45;&gt;linear_33 -->
<g id="edge37" class="edge">
<title>merge_32&#45;&gt;linear_33</title>
<path fill="none" stroke="#2c3e50" d="M316,-150.75C316,-136.56 316,-119.34 316,-103.46"/>
<polygon fill="#2c3e50" stroke="#2c3e50" points="319.5,-103.26 316,-93.26 312.5,-103.26 319.5,-103.26"/>
</g>
</g>
</svg>
