<?xml version="1.0" encoding="UTF-8" standalone="no"?>
<!DOCTYPE svg PUBLIC "-//W3C//DTD SVG 1.1//EN"
 "http://www.w3.org/Graphics/SVG/1.1/DTD/svg11.dtd">
<!-- Generated by graphviz version 2.43.0 (0)
 -->
<!-- Title: G Pages: 1 -->
<svg width="688pt" height="3440pt"
 viewBox="0.00 0.00 688.00 3440.44" xmlns="http://www.w3.org/2000/svg" xmlns:xlink="http://www.w3.org/1999/xlink">
<g id="graph0" class="graph" transform="scale(1 1) rotate(0) translate(4 3436.44)">
<title>G</title>
<polygon fill="white" stroke="transparent" points="-4,4 -4,-3436.44 684,-3436.44 684,4 -4,4"/>
<text text-anchor="middle" x="340" y="-3417.24" font-family="Helvetica,sans-Serif" font-size="14.00">Forward: 10ms</text>
<g id="clust1" class="cluster">
<title>cluster_level_0</title>
<polygon fill="none" stroke="#999999" stroke-dasharray="5,2" points="54,-3264.55 54,-3401.44 486,-3401.44 486,-3264.55 54,-3264.55"/>
<text text-anchor="middle" x="270" y="-3386.24" font-family="Helvetica,sans-Serif" font-size="14.00" fill="#999999">level 0 &#160;381µs &#160;x1.0</text>
</g>
<g id="clust2" class="cluster">
<title>cluster_level_1</title>
<polygon fill="none" stroke="#999999" stroke-dasharray="5,2" points="85,-3161.3 85,-3245.55 186,-3245.55 186,-3161.3 85,-3161.3"/>
<text text-anchor="middle" x="135.5" y="-3230.35" font-family="Helvetica,sans-Serif" font-size="14.00" fill="#999999">level 1 &#160;3ms</text>
</g>
<g id="clust3" class="cluster">
<title>cluster_level_2</title>
<polygon fill="none" stroke="#999999" stroke-dasharray="5,2" points="85,-3059.3 85,-3142.3 186,-3142.3 186,-3059.3 85,-3059.3"/>
<text text-anchor="middle" x="135.5" y="-3127.1" font-family="Helvetica,sans-Serif" font-size="14.00" fill="#999999">level 2 &#160;4ms</text>
</g>
<g id="clust4" class="cluster">
<title>cluster_level_3</title>
<polygon fill="none" stroke="#999999" stroke-dasharray="5,2" points="78,-2965.3 78,-3040.3 193,-3040.3 193,-2965.3 78,-2965.3"/>
<text text-anchor="middle" x="135.5" y="-3025.1" font-family="Helvetica,sans-Serif" font-size="14.00" fill="#999999">level 3 &#160;453µs</text>
</g>
<g id="clust5" class="cluster">
<title>cluster_level_4</title>
<polygon fill="none" stroke="#999999" stroke-dasharray="5,2" points="8,-2863.3 8,-2946.3 210,-2946.3 210,-2863.3 8,-2863.3"/>
<text text-anchor="middle" x="109" y="-2931.1" font-family="Helvetica,sans-Serif" font-size="14.00" fill="#999999">level 4 &#160;193µs &#160;x0.9</text>
</g>
<g id="clust6" class="cluster">
<title>cluster_level_5</title>
<polygon fill="none" stroke="#999999" stroke-dasharray="5,2" points="99,-2731.76 99,-2844.3 205,-2844.3 205,-2731.76 99,-2731.76"/>
<text text-anchor="middle" x="152" y="-2829.1" font-family="Helvetica,sans-Serif" font-size="14.00" fill="#999999">level 5 &#160;33µs</text>
</g>
<g id="clust7" class="cluster">
<title>cluster_level_6</title>
<polygon fill="none" stroke="#999999" stroke-dasharray="5,2" points="54,-2629.76 54,-2712.76 160,-2712.76 160,-2629.76 54,-2629.76"/>
<text text-anchor="middle" x="107" y="-2697.56" font-family="Helvetica,sans-Serif" font-size="14.00" fill="#999999">level 6 &#160;47µs</text>
</g>
<g id="clust8" class="cluster">
<title>cluster_level_7</title>
<polygon fill="none" stroke="#999999" stroke-dasharray="5,2" points="61,-2519.43 61,-2610.76 167,-2610.76 167,-2519.43 61,-2519.43"/>
<text text-anchor="middle" x="114" y="-2595.56" font-family="Helvetica,sans-Serif" font-size="14.00" fill="#999999">level 7 &#160;14µs</text>
</g>
<g id="clust9" class="cluster">
<title>cluster_level_8</title>
<polygon fill="none" stroke="#999999" stroke-dasharray="5,2" points="57,-2425.43 57,-2500.43 172,-2500.43 172,-2425.43 57,-2425.43"/>
<text text-anchor="middle" x="114.5" y="-2485.23" font-family="Helvetica,sans-Serif" font-size="14.00" fill="#999999">level 8 &#160;128µs</text>
</g>
<g id="clust10" class="cluster">
<title>cluster_level_9</title>
<polygon fill="none" stroke="#999999" stroke-dasharray="5,2" points="57,-2331.43 57,-2406.43 172,-2406.43 172,-2331.43 57,-2331.43"/>
<text text-anchor="middle" x="114.5" y="-2391.23" font-family="Helvetica,sans-Serif" font-size="14.00" fill="#999999">level 9 &#160;139µs</text>
</g>
<g id="clust11" class="cluster">
<title>cluster_level_10</title>
<polygon fill="none" stroke="#999999" stroke-dasharray="5,2" points="57,-2237.43 57,-2312.43 172,-2312.43 172,-2237.43 57,-2237.43"/>
<text text-anchor="middle" x="114.5" y="-2297.23" font-family="Helvetica,sans-Serif" font-size="14.00" fill="#999999">level 10 &#160;84µs</text>
</g>
<g id="clust12" class="cluster">
<title>cluster_level_11</title>
<polygon fill="none" stroke="#999999" stroke-dasharray="5,2" points="19,-2091.43 19,-2218.43 209,-2218.43 209,-2091.43 19,-2091.43"/>
<text text-anchor="middle" x="114" y="-2203.23" font-family="Helvetica,sans-Serif" font-size="14.00" fill="#999999">level 11 &#160;375µs</text>
</g>
<g id="clust13" class="cluster">
<title>cluster_level_12</title>
<polygon fill="none" stroke="#999999" stroke-dasharray="5,2" points="61,-1997.43 61,-2072.43 167,-2072.43 167,-1997.43 61,-1997.43"/>
<text text-anchor="middle" x="114" y="-2057.23" font-family="Helvetica,sans-Serif" font-size="14.00" fill="#999999">level 12 &#160;5µs</text>
</g>
<g id="clust14" class="cluster">
<title>cluster_level_13</title>
<polygon fill="none" stroke="#999999" stroke-dasharray="5,2" points="19,-1827.43 19,-1978.43 209,-1978.43 209,-1827.43 19,-1827.43"/>
<text text-anchor="middle" x="114" y="-1963.23" font-family="Helvetica,sans-Serif" font-size="14.00" fill="#999999">level 13 &#160;49µs</text>
</g>
<g id="clust15" class="cluster">
<title>cluster_level_14</title>
<polygon fill="none" stroke="#999999" stroke-dasharray="5,2" points="19,-1681.43 19,-1808.43 209,-1808.43 209,-1681.43 19,-1681.43"/>
<text text-anchor="middle" x="114" y="-1793.23" font-family="Helvetica,sans-Serif" font-size="14.00" fill="#999999">level 14 &#160;46µs</text>
</g>
<g id="clust16" class="cluster">
<title>cluster_level_15</title>
<polygon fill="none" stroke="#999999" stroke-dasharray="5,2" points="61,-1587.43 61,-1662.43 167,-1662.43 167,-1587.43 61,-1587.43"/>
<text text-anchor="middle" x="114" y="-1647.23" font-family="Helvetica,sans-Serif" font-size="14.00" fill="#999999">level 15 &#160;6µs</text>
</g>
<g id="clust17" class="cluster">
<title>cluster_level_16</title>
<polygon fill="none" stroke="#999999" stroke-dasharray="5,2" points="57,-1493.43 57,-1568.43 172,-1568.43 172,-1493.43 57,-1493.43"/>
<text text-anchor="middle" x="114.5" y="-1553.23" font-family="Helvetica,sans-Serif" font-size="14.00" fill="#999999">level 16 &#160;41µs</text>
</g>
<g id="clust18" class="cluster">
<title>cluster_level_17</title>
<polygon fill="none" stroke="#999999" stroke-dasharray="5,2" points="48,-1399.43 48,-1474.43 180,-1474.43 180,-1399.43 48,-1399.43"/>
<text text-anchor="middle" x="114" y="-1459.23" font-family="Helvetica,sans-Serif" font-size="14.00" fill="#999999">level 17 &#160;49µs</text>
</g>
<g id="clust19" class="cluster">
<title>cluster_level_18</title>
<polygon fill="none" stroke="#999999" stroke-dasharray="5,2" points="57,-1305.43 57,-1380.43 172,-1380.43 172,-1305.43 57,-1305.43"/>
<text text-anchor="middle" x="114.5" y="-1365.23" font-family="Helvetica,sans-Serif" font-size="14.00" fill="#999999">level 18 &#160;13µs</text>
</g>
<g id="clust20" class="cluster">
<title>cluster_level_19</title>
<polygon fill="none" stroke="#999999" stroke-dasharray="5,2" points="52,-1191.43 52,-1286.43 176,-1286.43 176,-1191.43 52,-1191.43"/>
<text text-anchor="middle" x="114" y="-1271.23" font-family="Helvetica,sans-Serif" font-size="14.00" fill="#999999">level 19 &#160;243µs</text>
</g>
<g id="clust21" class="cluster">
<title>cluster_level_20</title>
<polygon fill="none" stroke="#999999" stroke-dasharray="5,2" points="132,-1045.43 132,-1172.43 330,-1172.43 330,-1045.43 132,-1045.43"/>
<text text-anchor="middle" x="231" y="-1157.23" font-family="Helvetica,sans-Serif" font-size="14.00" fill="#999999">level 20 &#160;117µs</text>
</g>
<g id="clust22" class="cluster">
<title>cluster_level_21</title>
<polygon fill="none" stroke="#999999" stroke-dasharray="5,2" points="132,-899.43 132,-1026.43 330,-1026.43 330,-899.43 132,-899.43"/>
<text text-anchor="middle" x="231" y="-1011.23" font-family="Helvetica,sans-Serif" font-size="14.00" fill="#999999">level 21 &#160;38µs</text>
</g>
<g id="clust23" class="cluster">
<title>cluster_level_22</title>
<polygon fill="none" stroke="#999999" stroke-dasharray="5,2" points="257,-797.43 257,-880.43 372,-880.43 372,-797.43 257,-797.43"/>
<text text-anchor="middle" x="314.5" y="-865.23" font-family="Helvetica,sans-Serif" font-size="14.00" fill="#999999">level 22 &#160;18µs</text>
</g>
<g id="clust24" class="cluster">
<title>cluster_level_23</title>
<polygon fill="none" stroke="#999999" stroke-dasharray="5,2" points="252,-695.43 252,-778.43 376,-778.43 376,-695.43 252,-695.43"/>
<text text-anchor="middle" x="314" y="-763.23" font-family="Helvetica,sans-Serif" font-size="14.00" fill="#999999">level 23 &#160;111µs</text>
</g>
<g id="clust25" class="cluster">
<title>cluster_level_24</title>
<polygon fill="none" stroke="#999999" stroke-dasharray="5,2" points="257,-593.43 257,-676.43 372,-676.43 372,-593.43 257,-593.43"/>
<text text-anchor="middle" x="314.5" y="-661.23" font-family="Helvetica,sans-Serif" font-size="14.00" fill="#999999">level 24 &#160;41µs</text>
</g>
<g id="clust26" class="cluster">
<title>cluster_level_25</title>
<polygon fill="none" stroke="#999999" stroke-dasharray="5,2" points="243,-499.43 243,-574.43 385,-574.43 385,-499.43 243,-499.43"/>
<text text-anchor="middle" x="314" y="-559.23" font-family="Helvetica,sans-Serif" font-size="14.00" fill="#999999">level 25 &#160;52µs</text>
</g>
<g id="clust27" class="cluster">
<title>cluster_level_26</title>
<polygon fill="none" stroke="#999999" stroke-dasharray="5,2" points="257,-397.43 257,-480.43 372,-480.43 372,-397.43 257,-397.43"/>
<text text-anchor="middle" x="314.5" y="-465.23" font-family="Helvetica,sans-Serif" font-size="14.00" fill="#999999">level 26 &#160;22µs</text>
</g>
<g id="clust28" class="cluster">
<title>cluster_level_27</title>
<polygon fill="none" stroke="#999999" stroke-dasharray="5,2" points="204,-295.43 204,-378.43 406,-378.43 406,-295.43 204,-295.43"/>
<text text-anchor="middle" x="305" y="-363.23" font-family="Helvetica,sans-Serif" font-size="14.00" fill="#999999">level 27 &#160;51µs &#160;x0.8</text>
</g>
<g id="clust29" class="cluster">
<title>cluster_level_28</title>
<polygon fill="none" stroke="#999999" stroke-dasharray="5,2" points="257,-163.89 257,-276.43 372,-276.43 372,-163.89 257,-163.89"/>
<text text-anchor="middle" x="314.5" y="-261.23" font-family="Helvetica,sans-Serif" font-size="14.00" fill="#999999">level 28 &#160;16µs</text>
</g>
<g id="clust30" class="cluster">
<title>cluster_level_29</title>
<polygon fill="none" stroke="#999999" stroke-dasharray="5,2" points="233,-8 233,-144.89 395,-144.89 395,-8 233,-8"/>
<text text-anchor="middle" x="314" y="-129.69" font-family="Helvetica,sans-Serif" font-size="14.00" fill="#999999">level 29 &#160;28µs</text>
</g>
<!-- linear_1 -->
<g id="node1" class="node">
<title>linear_1</title>
<polygon fill="#49aa52" stroke="black" points="61.66,-3306.39 135,-3272.6 208.34,-3306.39 208.27,-3361.05 61.73,-3361.05 61.66,-3306.39"/>
<text text-anchor="middle" x="135" y="-3336.7" font-family="Helvetica,sans-Serif" font-size="11.00">linear</text>
<text text-anchor="middle" x="135" y="-3324.7" font-family="Helvetica,sans-Serif" font-size="11.00">#input</text>
<text text-anchor="middle" x="135" y="-3312.7" font-family="Helvetica,sans-Serif" font-size="11.00">363us</text>
<text text-anchor="middle" x="135" y="-3300.7" font-family="Helvetica,sans-Serif" font-size="11.00">[24 params]</text>
</g>
<!-- gelu_2 -->
<g id="node3" class="node">
<title>gelu_2</title>
<ellipse fill="#ee7a23" stroke="black" cx="135" cy="-3191.92" rx="40.11" ry="22.76"/>
<text text-anchor="middle" x="135" y="-3195.12" font-family="Helvetica,sans-Serif" font-size="11.00">gelu</text>
<text text-anchor="middle" x="135" y="-3183.12" font-family="Helvetica,sans-Serif" font-size="11.00">3.05ms</text>
</g>
<!-- linear_1&#45;&gt;gelu_2 -->
<g id="edge1" class="edge">
<title>linear_1&#45;&gt;gelu_2</title>
<path fill="none" stroke="#2c3e50" d="M135,-3272.27C135,-3256.52 135,-3239.43 135,-3225.16"/>
<polygon fill="#2c3e50" stroke="#2c3e50" points="138.5,-3224.86 135,-3214.86 131.5,-3224.86 138.5,-3224.86"/>
</g>
<!-- gate_22 -->
<g id="node23" class="node">
<title>gate_22</title>
<polygon fill="#31ad5b" stroke="black" points="231,-1141.43 140,-1097.43 231,-1053.43 322,-1097.43 231,-1141.43"/>
<text text-anchor="middle" x="231" y="-1106.63" font-family="Helvetica,sans-Serif" font-size="11.00">gate</text>
<text text-anchor="middle" x="231" y="-1094.63" font-family="Helvetica,sans-Serif" font-size="11.00">113us</text>
<text text-anchor="middle" x="231" y="-1082.63" font-family="Helvetica,sans-Serif" font-size="11.00">[162 params]</text>
</g>
<!-- linear_1&#45;&gt;gate_22 -->
<g id="edge24" class="edge">
<title>linear_1&#45;&gt;gate_22</title>
<path fill="none" stroke="#2980b9" stroke-dasharray="5,2" d="M174.88,-3290.79C201.25,-3267.48 231,-3232.42 231,-3192.92 231,-3192.92 231,-3192.92 231,-1226.43 231,-1201.96 231,-1174.85 231,-1151.91"/>
<polygon fill="#2980b9" stroke="#2980b9" points="234.5,-1151.68 231,-1141.68 227.5,-1151.68 234.5,-1151.68"/>
<text text-anchor="middle" x="243.5" y="-2261.23" font-family="Helvetica,sans-Serif" font-size="9.00" fill="#2980b9">input</text>
</g>
<!-- state_read_memory_25 -->
<g id="node2" class="node">
<title>state_read_memory_25</title>
<polygon fill="#27ad5f" stroke="black" points="352,-3353.5 226,-3321.5 352,-3289.5 478,-3321.5 352,-3353.5"/>
<text text-anchor="middle" x="352" y="-3324.7" font-family="Helvetica,sans-Serif" font-size="11.00">state_read_memory</text>
<text text-anchor="middle" x="352" y="-3312.7" font-family="Helvetica,sans-Serif" font-size="11.00">0us</text>
</g>
<!-- state_add_24 -->
<g id="node25" class="node">
<title>state_add_24</title>
<polygon fill="#27ad5f" stroke="black" points="349.5,-849.43 278.5,-849.43 278.5,-805.43 349.5,-805.43 349.5,-849.43"/>
<text text-anchor="middle" x="314" y="-836.63" font-family="Helvetica,sans-Serif" font-size="11.00">state_add</text>
<text text-anchor="middle" x="314" y="-824.63" font-family="Helvetica,sans-Serif" font-size="11.00">#memory</text>
<text text-anchor="middle" x="314" y="-812.63" font-family="Helvetica,sans-Serif" font-size="11.00">5us</text>
</g>
<!-- state_read_memory_25&#45;&gt;state_add_24 -->
<g id="edge28" class="edge">
<title>state_read_memory_25&#45;&gt;state_add_24</title>
<path fill="none" stroke="#2980b9" stroke-dasharray="5,2" d="M351.24,-3289.56C350.68,-3263.73 350,-3225.93 350,-3192.92 350,-3192.92 350,-3192.92 350,-950.43 350,-918.21 338.31,-883.09 328.25,-858.84"/>
<polygon fill="#2980b9" stroke="#2980b9" points="331.39,-857.28 324.22,-849.47 324.96,-860.04 331.39,-857.28"/>
<text text-anchor="middle" x="369" y="-2141.23" font-family="Helvetica,sans-Serif" font-size="9.00" fill="#2980b9">memory</text>
</g>
<!-- layernorm_3 -->
<g id="node4" class="node">
<title>layernorm_3</title>
<polygon fill="#e74c3c" stroke="black" points="177,-3111.3 93,-3111.3 93,-3067.3 177,-3067.3 177,-3111.3"/>
<text text-anchor="middle" x="135" y="-3098.5" font-family="Helvetica,sans-Serif" font-size="11.00">layernorm</text>
<text text-anchor="middle" x="135" y="-3086.5" font-family="Helvetica,sans-Serif" font-size="11.00">4.31ms</text>
<text text-anchor="middle" x="135" y="-3074.5" font-family="Helvetica,sans-Serif" font-size="11.00">[16 params]</text>
</g>
<!-- gelu_2&#45;&gt;layernorm_3 -->
<g id="edge2" class="edge">
<title>gelu_2&#45;&gt;layernorm_3</title>
<path fill="none" stroke="#2c3e50" d="M135,-3169.09C135,-3155.19 135,-3136.96 135,-3121.54"/>
<polygon fill="#2c3e50" stroke="#2c3e50" points="138.5,-3121.4 135,-3111.4 131.5,-3121.4 138.5,-3121.4"/>
</g>
<!-- rmsnorm_4 -->
<g id="node5" class="node">
<title>rmsnorm_4</title>
<polygon fill="#50aa50" stroke="black" points="168,-3009.3 102,-3009.3 102,-2973.3 168,-2973.3 168,-3009.3"/>
<text text-anchor="middle" x="135" y="-2994.5" font-family="Helvetica,sans-Serif" font-size="11.00">rmsnorm</text>
<text text-anchor="middle" x="135" y="-2982.5" font-family="Helvetica,sans-Serif" font-size="11.00">435us</text>
</g>
<!-- layernorm_3&#45;&gt;rmsnorm_4 -->
<g id="edge3" class="edge">
<title>layernorm_3&#45;&gt;rmsnorm_4</title>
<path fill="none" stroke="#2c3e50" d="M135,-3066.99C135,-3053.03 135,-3034.66 135,-3019.63"/>
<polygon fill="#2c3e50" stroke="#2c3e50" points="138.5,-3019.39 135,-3009.39 131.5,-3019.39 138.5,-3019.39"/>
</g>
<!-- graph_6 -->
<g id="node6" class="node">
<title>graph_6</title>
<polygon fill="#33ac5b" stroke="black" points="100,-2915.3 16,-2915.3 16,-2871.3 100,-2871.3 100,-2915.3"/>
<text text-anchor="middle" x="58" y="-2902.5" font-family="Helvetica,sans-Serif" font-size="11.00">graph</text>
<text text-anchor="middle" x="58" y="-2890.5" font-family="Helvetica,sans-Serif" font-size="11.00">134us</text>
<text text-anchor="middle" x="58" y="-2878.5" font-family="Helvetica,sans-Serif" font-size="11.00">[88 params]</text>
</g>
<!-- rmsnorm_4&#45;&gt;graph_6 -->
<g id="edge5" class="edge">
<title>rmsnorm_4&#45;&gt;graph_6</title>
<path fill="none" stroke="#2c3e50" d="M121.23,-2973.13C110.18,-2959.35 94.42,-2939.7 81.39,-2923.46"/>
<polygon fill="#2c3e50" stroke="#2c3e50" points="83.86,-2920.94 74.87,-2915.33 78.4,-2925.32 83.86,-2920.94"/>
</g>
<!-- graph_5 -->
<g id="node7" class="node">
<title>graph_5</title>
<polygon fill="#2bad5e" stroke="black" points="202,-2915.3 118,-2915.3 118,-2871.3 202,-2871.3 202,-2915.3"/>
<text text-anchor="middle" x="160" y="-2902.5" font-family="Helvetica,sans-Serif" font-size="11.00">graph</text>
<text text-anchor="middle" x="160" y="-2890.5" font-family="Helvetica,sans-Serif" font-size="11.00">47us</text>
<text text-anchor="middle" x="160" y="-2878.5" font-family="Helvetica,sans-Serif" font-size="11.00">[88 params]</text>
</g>
<!-- rmsnorm_4&#45;&gt;graph_5 -->
<g id="edge4" class="edge">
<title>rmsnorm_4&#45;&gt;graph_5</title>
<path fill="none" stroke="#2c3e50" d="M140.01,-2973.24C141.65,-2967.55 143.44,-2961.16 145,-2955.3 147.57,-2945.62 150.23,-2935.04 152.58,-2925.45"/>
<polygon fill="#2c3e50" stroke="#2c3e50" points="156.03,-2926.06 154.99,-2915.52 149.23,-2924.41 156.03,-2926.06"/>
</g>
<!-- merge_7 -->
<g id="node8" class="node">
<title>merge_7</title>
<ellipse fill="#29ad5f" stroke="black" cx="152" cy="-2776.53" rx="36.54" ry="36.54"/>
<text text-anchor="middle" x="152" y="-2779.73" font-family="Helvetica,sans-Serif" font-size="11.00">merge</text>
<text text-anchor="middle" x="152" y="-2767.73" font-family="Helvetica,sans-Serif" font-size="11.00">25us</text>
</g>
<!-- graph_6&#45;&gt;merge_7 -->
<g id="edge7" class="edge">
<title>graph_6&#45;&gt;merge_7</title>
<path fill="none" stroke="#2c3e50" d="M75.24,-2871.25C88.41,-2855.16 106.88,-2832.62 122.4,-2813.67"/>
<polygon fill="#2c3e50" stroke="#2c3e50" points="125.22,-2815.75 128.85,-2805.79 119.8,-2811.31 125.22,-2815.75"/>
</g>
<!-- graph_5&#45;&gt;merge_7 -->
<g id="edge6" class="edge">
<title>graph_5&#45;&gt;merge_7</title>
<path fill="none" stroke="#2c3e50" d="M158.53,-2871.25C157.6,-2857.85 156.35,-2839.96 155.2,-2823.41"/>
<polygon fill="#2c3e50" stroke="#2c3e50" points="158.68,-2823.06 154.5,-2813.32 151.7,-2823.54 158.68,-2823.06"/>
</g>
<!-- linear_8 -->
<g id="node9" class="node">
<title>linear_8</title>
<polygon fill="#28ad5f" stroke="black" points="151,-2681.76 67,-2681.76 67,-2637.76 151,-2637.76 151,-2681.76"/>
<text text-anchor="middle" x="109" y="-2668.96" font-family="Helvetica,sans-Serif" font-size="11.00">linear</text>
<text text-anchor="middle" x="109" y="-2656.96" font-family="Helvetica,sans-Serif" font-size="11.00">21us</text>
<text text-anchor="middle" x="109" y="-2644.96" font-family="Helvetica,sans-Serif" font-size="11.00">[72 params]</text>
</g>
<!-- merge_7&#45;&gt;linear_8 -->
<g id="edge8" class="edge">
<title>merge_7&#45;&gt;linear_8</title>
<path fill="none" stroke="#2c3e50" d="M139.33,-2741.71C133.4,-2725.87 126.38,-2707.14 120.59,-2691.68"/>
<polygon fill="#2c3e50" stroke="#2c3e50" points="123.77,-2690.19 116.98,-2682.06 117.21,-2692.65 123.77,-2690.19"/>
</g>
<!-- add_9 -->
<g id="node10" class="node">
<title>add_9</title>
<ellipse fill="#27ad5f" stroke="black" cx="114" cy="-2553.59" rx="26.33" ry="26.33"/>
<text text-anchor="middle" x="114" y="-2556.79" font-family="Helvetica,sans-Serif" font-size="11.00">add</text>
<text text-anchor="middle" x="114" y="-2544.79" font-family="Helvetica,sans-Serif" font-size="11.00">7us</text>
</g>
<!-- merge_7&#45;&gt;add_9 -->
<g id="edge9" class="edge">
<title>merge_7&#45;&gt;add_9</title>
<path fill="none" stroke="#2c3e50" d="M161.93,-2740.9C168.88,-2710.87 175.13,-2666.58 164,-2629.76 158.71,-2612.24 147.84,-2595.06 137.58,-2581.56"/>
<polygon fill="#2c3e50" stroke="#2c3e50" points="140.28,-2579.33 131.33,-2573.66 134.79,-2583.68 140.28,-2579.33"/>
</g>
<!-- linear_8&#45;&gt;add_9 -->
<g id="edge10" class="edge">
<title>linear_8&#45;&gt;add_9</title>
<path fill="none" stroke="#2c3e50" d="M110.01,-2637.68C110.67,-2624.02 111.54,-2605.9 112.3,-2590.06"/>
<polygon fill="#2c3e50" stroke="#2c3e50" points="115.79,-2590.21 112.78,-2580.06 108.8,-2589.88 115.79,-2590.21"/>
</g>
<!-- dropout_10 -->
<g id="node11" class="node">
<title>dropout_10</title>
<polygon fill="#32ac5b" stroke="black" points="143.5,-2469.43 84.5,-2469.43 84.5,-2433.43 143.5,-2433.43 143.5,-2469.43"/>
<text text-anchor="middle" x="114" y="-2454.63" font-family="Helvetica,sans-Serif" font-size="11.00">dropout</text>
<text text-anchor="middle" x="114" y="-2442.63" font-family="Helvetica,sans-Serif" font-size="11.00">122us</text>
</g>
<!-- add_9&#45;&gt;dropout_10 -->
<g id="edge11" class="edge">
<title>add_9&#45;&gt;dropout_10</title>
<path fill="none" stroke="#2c3e50" d="M114,-2527.32C114,-2512.77 114,-2494.48 114,-2479.62"/>
<polygon fill="#2c3e50" stroke="#2c3e50" points="117.5,-2479.51 114,-2469.51 110.5,-2479.51 117.5,-2479.51"/>
</g>
<!-- softclamp_11 -->
<g id="node12" class="node">
<title>softclamp_11</title>
<polygon fill="#33ac5b" stroke="black" points="149.5,-2375.43 78.5,-2375.43 78.5,-2339.43 149.5,-2339.43 149.5,-2375.43"/>
<text text-anchor="middle" x="114" y="-2360.63" font-family="Helvetica,sans-Serif" font-size="11.00">softclamp</text>
<text text-anchor="middle" x="114" y="-2348.63" font-family="Helvetica,sans-Serif" font-size="11.00">130us</text>
</g>
<!-- dropout_10&#45;&gt;softclamp_11 -->
<g id="edge12" class="edge">
<title>dropout_10&#45;&gt;softclamp_11</title>
<path fill="none" stroke="#2c3e50" d="M114,-2433.13C114,-2419.89 114,-2401.38 114,-2386.09"/>
<polygon fill="#2c3e50" stroke="#2c3e50" points="117.5,-2385.66 114,-2375.66 110.5,-2385.66 117.5,-2385.66"/>
</g>
<!-- softplus_12 -->
<g id="node13" class="node">
<title>softplus_12</title>
<polygon fill="#2ead5d" stroke="black" points="144,-2281.43 84,-2281.43 84,-2245.43 144,-2245.43 144,-2281.43"/>
<text text-anchor="middle" x="114" y="-2266.63" font-family="Helvetica,sans-Serif" font-size="11.00">softplus</text>
<text text-anchor="middle" x="114" y="-2254.63" font-family="Helvetica,sans-Serif" font-size="11.00">77us</text>
</g>
<!-- softclamp_11&#45;&gt;softplus_12 -->
<g id="edge13" class="edge">
<title>softclamp_11&#45;&gt;softplus_12</title>
<path fill="none" stroke="#2c3e50" d="M114,-2339.13C114,-2325.89 114,-2307.38 114,-2292.09"/>
<polygon fill="#2c3e50" stroke="#2c3e50" points="117.5,-2291.66 114,-2281.66 110.5,-2291.66 117.5,-2291.66"/>
</g>
<!-- map_13 -->
<g id="node14" class="node">
<title>map_13</title>
<polygon fill="#4aaa52" stroke="black" points="201.17,-2187.43 62.5,-2187.43 26.83,-2099.43 165.5,-2099.43 201.17,-2187.43"/>
<text text-anchor="middle" x="114" y="-2152.63" font-family="Helvetica,sans-Serif" font-size="11.00">map</text>
<text text-anchor="middle" x="114" y="-2140.63" font-family="Helvetica,sans-Serif" font-size="11.00">370us</text>
<text text-anchor="middle" x="114" y="-2128.63" font-family="Helvetica,sans-Serif" font-size="11.00">[10 params]</text>
</g>
<!-- softplus_12&#45;&gt;map_13 -->
<g id="edge14" class="edge">
<title>softplus_12&#45;&gt;map_13</title>
<path fill="none" stroke="#2c3e50" d="M114,-2245.27C114,-2232.66 114,-2214.8 114,-2197.6"/>
<polygon fill="#2c3e50" stroke="#2c3e50" points="117.5,-2197.6 114,-2187.6 110.5,-2197.6 117.5,-2197.6"/>
</g>
<!-- reshape_14 -->
<g id="node15" class="node">
<title>reshape_14</title>
<polygon fill="#27ad5f" stroke="black" points="144.5,-2041.43 83.5,-2041.43 83.5,-2005.43 144.5,-2005.43 144.5,-2041.43"/>
<text text-anchor="middle" x="114" y="-2026.63" font-family="Helvetica,sans-Serif" font-size="11.00">reshape</text>
<text text-anchor="middle" x="114" y="-2014.63" font-family="Helvetica,sans-Serif" font-size="11.00">2us</text>
</g>
<!-- map_13&#45;&gt;reshape_14 -->
<g id="edge15" class="edge">
<title>map_13&#45;&gt;reshape_14</title>
<path fill="none" stroke="#2c3e50" d="M114,-2099.16C114,-2083.23 114,-2065.64 114,-2051.53"/>
<polygon fill="#2c3e50" stroke="#2c3e50" points="117.5,-2051.51 114,-2041.51 110.5,-2051.51 117.5,-2051.51"/>
</g>
<!-- map_15 -->
<g id="node16" class="node">
<title>map_15</title>
<polygon fill="#2bad5e" stroke="black" points="201.17,-1947.43 62.5,-1947.43 26.83,-1835.43 165.5,-1835.43 201.17,-1947.43"/>
<text text-anchor="middle" x="114" y="-1906.63" font-family="Helvetica,sans-Serif" font-size="11.00">map</text>
<text text-anchor="middle" x="114" y="-1894.63" font-family="Helvetica,sans-Serif" font-size="11.00">#halves</text>
<text text-anchor="middle" x="114" y="-1882.63" font-family="Helvetica,sans-Serif" font-size="11.00">44us</text>
<text text-anchor="middle" x="114" y="-1870.63" font-family="Helvetica,sans-Serif" font-size="11.00">[20 params]</text>
</g>
<!-- reshape_14&#45;&gt;map_15 -->
<g id="edge16" class="edge">
<title>reshape_14&#45;&gt;map_15</title>
<path fill="none" stroke="#2c3e50" d="M114,-2005.17C114,-1992.81 114,-1975.33 114,-1957.81"/>
<polygon fill="#2c3e50" stroke="#2c3e50" points="117.5,-1957.53 114,-1947.53 110.5,-1957.53 117.5,-1957.53"/>
</g>
<!-- map_16 -->
<g id="node17" class="node">
<title>map_16</title>
<polygon fill="#2aad5e" stroke="black" points="201.17,-1777.43 62.5,-1777.43 26.83,-1689.43 165.5,-1689.43 201.17,-1777.43"/>
<text text-anchor="middle" x="114" y="-1742.63" font-family="Helvetica,sans-Serif" font-size="11.00">map</text>
<text text-anchor="middle" x="114" y="-1730.63" font-family="Helvetica,sans-Serif" font-size="11.00">42us</text>
<text text-anchor="middle" x="114" y="-1718.63" font-family="Helvetica,sans-Serif" font-size="11.00">[20 params]</text>
</g>
<!-- map_15&#45;&gt;map_16 -->
<g id="edge17" class="edge">
<title>map_15&#45;&gt;map_16</title>
<path fill="none" stroke="#2c3e50" d="M114,-1834.99C114,-1819.62 114,-1802.97 114,-1787.73"/>
<polygon fill="#2c3e50" stroke="#2c3e50" points="117.5,-1787.43 114,-1777.43 110.5,-1787.43 117.5,-1787.43"/>
</g>
<!-- reshape_17 -->
<g id="node18" class="node">
<title>reshape_17</title>
<polygon fill="#27ad5f" stroke="black" points="144.5,-1631.43 83.5,-1631.43 83.5,-1595.43 144.5,-1595.43 144.5,-1631.43"/>
<text text-anchor="middle" x="114" y="-1616.63" font-family="Helvetica,sans-Serif" font-size="11.00">reshape</text>
<text text-anchor="middle" x="114" y="-1604.63" font-family="Helvetica,sans-Serif" font-size="11.00">4us</text>
</g>
<!-- map_16&#45;&gt;reshape_17 -->
<g id="edge18" class="edge">
<title>map_16&#45;&gt;reshape_17</title>
<path fill="none" stroke="#2c3e50" d="M114,-1689.16C114,-1673.23 114,-1655.64 114,-1641.53"/>
<polygon fill="#2c3e50" stroke="#2c3e50" points="117.5,-1641.51 114,-1631.51 110.5,-1641.51 117.5,-1641.51"/>
</g>
<!-- shape_ops_18 -->
<g id="node19" class="node">
<title>shape_ops_18</title>
<polygon fill="#2aad5e" stroke="black" points="151,-1537.43 77,-1537.43 77,-1501.43 151,-1501.43 151,-1537.43"/>
<text text-anchor="middle" x="114" y="-1522.63" font-family="Helvetica,sans-Serif" font-size="11.00">shape_ops</text>
<text text-anchor="middle" x="114" y="-1510.63" font-family="Helvetica,sans-Serif" font-size="11.00">38us</text>
</g>
<!-- reshape_17&#45;&gt;shape_ops_18 -->
<g id="edge19" class="edge">
<title>reshape_17&#45;&gt;shape_ops_18</title>
<path fill="none" stroke="#2c3e50" d="M114,-1595.13C114,-1581.89 114,-1563.38 114,-1548.09"/>
<polygon fill="#2c3e50" stroke="#2c3e50" points="117.5,-1547.66 114,-1537.66 110.5,-1547.66 117.5,-1547.66"/>
</g>
<!-- neg_sigmoid_gate_19 -->
<g id="node20" class="node">
<title>neg_sigmoid_gate_19</title>
<polygon fill="#2bad5e" stroke="black" points="171.5,-1443.43 56.5,-1443.43 56.5,-1407.43 171.5,-1407.43 171.5,-1443.43"/>
<text text-anchor="middle" x="114" y="-1428.63" font-family="Helvetica,sans-Serif" font-size="11.00">neg_sigmoid_gate</text>
<text text-anchor="middle" x="114" y="-1416.63" font-family="Helvetica,sans-Serif" font-size="11.00">45us</text>
</g>
<!-- shape_ops_18&#45;&gt;neg_sigmoid_gate_19 -->
<g id="edge20" class="edge">
<title>shape_ops_18&#45;&gt;neg_sigmoid_gate_19</title>
<path fill="none" stroke="#2c3e50" d="M114,-1501.13C114,-1487.89 114,-1469.38 114,-1454.09"/>
<polygon fill="#2c3e50" stroke="#2c3e50" points="117.5,-1453.66 114,-1443.66 110.5,-1453.66 117.5,-1453.66"/>
</g>
<!-- transpose_rt_20 -->
<g id="node21" class="node">
<title>transpose_rt_20</title>
<polygon fill="#27ad5f" stroke="black" points="157,-1349.43 71,-1349.43 71,-1313.43 157,-1313.43 157,-1349.43"/>
<text text-anchor="middle" x="114" y="-1334.63" font-family="Helvetica,sans-Serif" font-size="11.00">transpose_rt</text>
<text text-anchor="middle" x="114" y="-1322.63" font-family="Helvetica,sans-Serif" font-size="11.00">10us</text>
</g>
<!-- neg_sigmoid_gate_19&#45;&gt;transpose_rt_20 -->
<g id="edge21" class="edge">
<title>neg_sigmoid_gate_19&#45;&gt;transpose_rt_20</title>
<path fill="none" stroke="#2c3e50" d="M114,-1407.13C114,-1393.89 114,-1375.38 114,-1360.09"/>
<polygon fill="#2c3e50" stroke="#2c3e50" points="117.5,-1359.66 114,-1349.66 110.5,-1359.66 117.5,-1359.66"/>
</g>
<!-- loop_21 -->
<g id="node22" class="node">
<title>loop_21</title>
<polygon fill="#3dac57" stroke="black" points="156,-1255.43 76,-1255.43 72,-1251.43 72,-1199.43 152,-1199.43 156,-1203.43 156,-1255.43"/>
<polyline fill="none" stroke="black" points="152,-1251.43 72,-1251.43 "/>
<polyline fill="none" stroke="black" points="152,-1251.43 152,-1199.43 "/>
<polyline fill="none" stroke="black" points="152,-1251.43 156,-1255.43 "/>
<text text-anchor="middle" x="114" y="-1242.63" font-family="Helvetica,sans-Serif" font-size="11.00">loop</text>
<text text-anchor="middle" x="114" y="-1230.63" font-family="Helvetica,sans-Serif" font-size="11.00">#refined</text>
<text text-anchor="middle" x="114" y="-1218.63" font-family="Helvetica,sans-Serif" font-size="11.00">238us</text>
<text text-anchor="middle" x="114" y="-1206.63" font-family="Helvetica,sans-Serif" font-size="11.00">[88 params]</text>
</g>
<!-- transpose_rt_20&#45;&gt;loop_21 -->
<g id="edge22" class="edge">
<title>transpose_rt_20&#45;&gt;loop_21</title>
<path fill="none" stroke="#2c3e50" d="M114,-1313.13C114,-1300.17 114,-1281.95 114,-1265.73"/>
<polygon fill="#2c3e50" stroke="#2c3e50" points="117.5,-1265.43 114,-1255.43 110.5,-1265.43 117.5,-1265.43"/>
</g>
<!-- loop_21&#45;&gt;gate_22 -->
<g id="edge23" class="edge">
<title>loop_21&#45;&gt;gate_22</title>
<path fill="none" stroke="#2c3e50" d="M138.81,-1199.29C155.59,-1180.93 177.96,-1156.45 196.47,-1136.2"/>
<polygon fill="#2c3e50" stroke="#2c3e50" points="199.19,-1138.42 203.36,-1128.67 194.03,-1133.69 199.19,-1138.42"/>
</g>
<!-- switch_23 -->
<g id="node24" class="node">
<title>switch_23</title>
<polygon fill="#2aad5e" stroke="black" points="231,-995.43 140,-951.43 231,-907.43 322,-951.43 231,-995.43"/>
<text text-anchor="middle" x="231" y="-960.63" font-family="Helvetica,sans-Serif" font-size="11.00">switch</text>
<text text-anchor="middle" x="231" y="-948.63" font-family="Helvetica,sans-Serif" font-size="11.00">34us</text>
<text text-anchor="middle" x="231" y="-936.63" font-family="Helvetica,sans-Serif" font-size="11.00">[160 params]</text>
</g>
<!-- loop_21&#45;&gt;switch_23 -->
<g id="edge26" class="edge">
<title>loop_21&#45;&gt;switch_23</title>
<path fill="none" stroke="#2980b9" stroke-dasharray="5,2" d="M102.11,-1199.18C87.87,-1162.1 68.98,-1094.75 95,-1045.43 111.44,-1014.27 143.54,-991.57 172.43,-976.39"/>
<polygon fill="#2980b9" stroke="#2980b9" points="174.32,-979.36 181.67,-971.73 171.17,-973.11 174.32,-979.36"/>
<text text-anchor="middle" x="111.5" y="-1095.23" font-family="Helvetica,sans-Serif" font-size="9.00" fill="#2980b9">refined</text>
</g>
<!-- gate_22&#45;&gt;switch_23 -->
<g id="edge25" class="edge">
<title>gate_22&#45;&gt;switch_23</title>
<path fill="none" stroke="#2c3e50" d="M231,-1053.23C231,-1038.28 231,-1021.34 231,-1005.68"/>
<polygon fill="#2c3e50" stroke="#2c3e50" points="234.5,-1005.6 231,-995.6 227.5,-1005.6 234.5,-1005.6"/>
</g>
<!-- switch_23&#45;&gt;state_add_24 -->
<g id="edge27" class="edge">
<title>switch_23&#45;&gt;state_add_24</title>
<path fill="none" stroke="#2c3e50" d="M253.02,-918.06C265.65,-899.49 281.4,-876.36 293.72,-858.24"/>
<polygon fill="#2c3e50" stroke="#2c3e50" points="296.74,-860.03 299.47,-849.79 290.95,-856.09 296.74,-860.03"/>
</g>
<!-- loop_26 -->
<g id="node26" class="node">
<title>loop_26</title>
<polygon fill="#31ad5c" stroke="black" points="356,-747.43 276,-747.43 272,-743.43 272,-703.43 352,-703.43 356,-707.43 356,-747.43"/>
<polyline fill="none" stroke="black" points="352,-743.43 272,-743.43 "/>
<polyline fill="none" stroke="black" points="352,-743.43 352,-703.43 "/>
<polyline fill="none" stroke="black" points="352,-743.43 356,-747.43 "/>
<text text-anchor="middle" x="314" y="-734.63" font-family="Helvetica,sans-Serif" font-size="11.00">loop</text>
<text text-anchor="middle" x="314" y="-722.63" font-family="Helvetica,sans-Serif" font-size="11.00">107us</text>
<text text-anchor="middle" x="314" y="-710.63" font-family="Helvetica,sans-Serif" font-size="11.00">[72 params]</text>
</g>
<!-- state_add_24&#45;&gt;loop_26 -->
<g id="edge29" class="edge">
<title>state_add_24&#45;&gt;loop_26</title>
<path fill="none" stroke="#2c3e50" d="M314,-805.22C314,-791.43 314,-773.21 314,-757.77"/>
<polygon fill="#2c3e50" stroke="#2c3e50" points="317.5,-757.61 314,-747.61 310.5,-757.61 317.5,-757.61"/>
</g>
<!-- state_read_state_add_24 -->
<g id="node34" class="node">
<title>state_read_state_add_24</title>
<ellipse fill="lightgrey" stroke="black" cx="588" cy="-3321.5" rx="92.01" ry="18"/>
<text text-anchor="middle" x="588" y="-3318.7" font-family="Helvetica,sans-Serif" font-size="11.00">state_read_state_add_24</text>
</g>
<!-- state_add_24&#45;&gt;state_read_state_add_24 -->
<g id="edge38" class="edge">
<title>state_add_24&#45;&gt;state_read_state_add_24</title>
<path fill="none" stroke="#e67e22" stroke-dasharray="1,5" d="M333.49,-849.73C344.44,-863.02 357.23,-881.04 364,-899.43 706.94,-1830.5 608.96,-3092.9 590.63,-3293.23"/>
<polygon fill="#e67e22" stroke="#e67e22" points="587.12,-3293.16 589.68,-3303.44 594.09,-3293.81 587.12,-3293.16"/>
<text text-anchor="middle" x="616.5" y="-2141.23" font-family="Helvetica,sans-Serif" font-size="9.00" fill="#e67e22">state</text>
</g>
<!-- loop_27 -->
<g id="node27" class="node">
<title>loop_27</title>
<polygon fill="#2aad5e" stroke="black" points="356,-645.43 276,-645.43 272,-641.43 272,-601.43 352,-601.43 356,-605.43 356,-645.43"/>
<polyline fill="none" stroke="black" points="352,-641.43 272,-641.43 "/>
<polyline fill="none" stroke="black" points="352,-641.43 352,-601.43 "/>
<polyline fill="none" stroke="black" points="352,-641.43 356,-645.43 "/>
<text text-anchor="middle" x="314" y="-632.63" font-family="Helvetica,sans-Serif" font-size="11.00">loop</text>
<text text-anchor="middle" x="314" y="-620.63" font-family="Helvetica,sans-Serif" font-size="11.00">35us</text>
<text text-anchor="middle" x="314" y="-608.63" font-family="Helvetica,sans-Serif" font-size="11.00">[81 params]</text>
</g>
<!-- loop_26&#45;&gt;loop_27 -->
<g id="edge30" class="edge">
<title>loop_26&#45;&gt;loop_27</title>
<path fill="none" stroke="#2c3e50" d="M314,-703.22C314,-689.43 314,-671.21 314,-655.77"/>
<polygon fill="#2c3e50" stroke="#2c3e50" points="317.5,-655.61 314,-645.61 310.5,-655.61 317.5,-655.61"/>
</g>
<!-- log_softmax_reduce_28 -->
<g id="node28" class="node">
<title>log_softmax_reduce_28</title>
<polygon fill="#2bad5e" stroke="black" points="377,-543.43 251,-543.43 251,-507.43 377,-507.43 377,-543.43"/>
<text text-anchor="middle" x="314" y="-528.63" font-family="Helvetica,sans-Serif" font-size="11.00">log_softmax_reduce</text>
<text text-anchor="middle" x="314" y="-516.63" font-family="Helvetica,sans-Serif" font-size="11.00">47us</text>
</g>
<!-- loop_27&#45;&gt;log_softmax_reduce_28 -->
<g id="edge31" class="edge">
<title>loop_27&#45;&gt;log_softmax_reduce_28</title>
<path fill="none" stroke="#2c3e50" d="M314,-601.13C314,-587.17 314,-568.8 314,-553.76"/>
<polygon fill="#2c3e50" stroke="#2c3e50" points="317.5,-553.52 314,-543.52 310.5,-553.52 317.5,-553.52"/>
</g>
<!-- linear_29 -->
<g id="node29" class="node">
<title>linear_29</title>
<polygon fill="#28ad5f" stroke="black" points="356,-449.43 272,-449.43 272,-405.43 356,-405.43 356,-449.43"/>
<text text-anchor="middle" x="314" y="-436.63" font-family="Helvetica,sans-Serif" font-size="11.00">linear</text>
<text text-anchor="middle" x="314" y="-424.63" font-family="Helvetica,sans-Serif" font-size="11.00">16us</text>
<text text-anchor="middle" x="314" y="-412.63" font-family="Helvetica,sans-Serif" font-size="11.00">[16 params]</text>
</g>
<!-- log_softmax_reduce_28&#45;&gt;linear_29 -->
<g id="edge32" class="edge">
<title>log_softmax_reduce_28&#45;&gt;linear_29</title>
<path fill="none" stroke="#2c3e50" d="M314,-507.27C314,-494.12 314,-475.62 314,-459.85"/>
<polygon fill="#2c3e50" stroke="#2c3e50" points="317.5,-459.46 314,-449.46 310.5,-459.46 317.5,-459.46"/>
</g>
<!-- linear_30 -->
<g id="node30" class="node">
<title>linear_30</title>
<polygon fill="#29ad5f" stroke="black" points="296,-347.43 212,-347.43 212,-303.43 296,-303.43 296,-347.43"/>
<text text-anchor="middle" x="254" y="-334.63" font-family="Helvetica,sans-Serif" font-size="11.00">linear</text>
<text text-anchor="middle" x="254" y="-322.63" font-family="Helvetica,sans-Serif" font-size="11.00">27us</text>
<text text-anchor="middle" x="254" y="-310.63" font-family="Helvetica,sans-Serif" font-size="11.00">[72 params]</text>
</g>
<!-- linear_29&#45;&gt;linear_30 -->
<g id="edge33" class="edge">
<title>linear_29&#45;&gt;linear_30</title>
<path fill="none" stroke="#2c3e50" d="M301.28,-405.22C292.76,-391.04 281.44,-372.16 272.01,-356.44"/>
<polygon fill="#2c3e50" stroke="#2c3e50" points="274.85,-354.38 266.71,-347.61 268.85,-357.98 274.85,-354.38"/>
</g>
<!-- linear_31 -->
<g id="node31" class="node">
<title>linear_31</title>
<polygon fill="#28ad5f" stroke="black" points="398,-347.43 314,-347.43 314,-303.43 398,-303.43 398,-347.43"/>
<text text-anchor="middle" x="356" y="-334.63" font-family="Helvetica,sans-Serif" font-size="11.00">linear</text>
<text text-anchor="middle" x="356" y="-322.63" font-family="Helvetica,sans-Serif" font-size="11.00">15us</text>
<text text-anchor="middle" x="356" y="-310.63" font-family="Helvetica,sans-Serif" font-size="11.00">[72 params]</text>
</g>
<!-- linear_29&#45;&gt;linear_31 -->
<g id="edge34" class="edge">
<title>linear_29&#45;&gt;linear_31</title>
<path fill="none" stroke="#2c3e50" d="M322.91,-405.22C328.81,-391.17 336.65,-372.51 343.21,-356.88"/>
<polygon fill="#2c3e50" stroke="#2c3e50" points="346.46,-358.18 347.11,-347.61 340.01,-355.47 346.46,-358.18"/>
</g>
<!-- merge_32 -->
<g id="node32" class="node">
<title>merge_32</title>
<ellipse fill="#27ad5f" stroke="black" cx="314" cy="-208.66" rx="36.54" ry="36.54"/>
<text text-anchor="middle" x="314" y="-211.86" font-family="Helvetica,sans-Serif" font-size="11.00">merge</text>
<text text-anchor="middle" x="314" y="-199.86" font-family="Helvetica,sans-Serif" font-size="11.00">10us</text>
</g>
<!-- linear_30&#45;&gt;merge_32 -->
<g id="edge35" class="edge">
<title>linear_30&#45;&gt;merge_32</title>
<path fill="none" stroke="#2c3e50" d="M265,-303.38C272.67,-288.72 283.14,-268.69 292.44,-250.91"/>
<polygon fill="#2c3e50" stroke="#2c3e50" points="295.64,-252.34 297.17,-241.86 289.43,-249.1 295.64,-252.34"/>
</g>
<!-- linear_31&#45;&gt;merge_32 -->
<g id="edge36" class="edge">
<title>linear_31&#45;&gt;merge_32</title>
<path fill="none" stroke="#2c3e50" d="M348.3,-303.38C343.19,-289.42 336.3,-270.6 330.03,-253.48"/>
<polygon fill="#2c3e50" stroke="#2c3e50" points="333.16,-251.83 326.44,-243.64 326.59,-254.24 333.16,-251.83"/>
</g>
<!-- linear_33 -->
<g id="node33" class="node">
<title>linear_33</title>
<polygon fill="#28ad5f" stroke="black" points="387.34,-80.05 314,-113.84 240.66,-80.05 240.73,-25.39 387.27,-25.39 387.34,-80.05"/>
<text text-anchor="middle" x="314" y="-80.15" font-family="Helvetica,sans-Serif" font-size="11.00">linear</text>
<text text-anchor="middle" x="314" y="-68.15" font-family="Helvetica,sans-Serif" font-size="11.00">#output</text>
<text text-anchor="middle" x="314" y="-56.15" font-family="Helvetica,sans-Serif" font-size="11.00">16us</text>
<text text-anchor="middle" x="314" y="-44.15" font-family="Helvetica,sans-Serif" font-size="11.00">[18 params]</text>
</g>
<!-- merge_32&#45;&gt;linear_33 -->
<g id="edge37" class="edge">
<title>merge_32&#45;&gt;linear_33</title>
<path fill="none" stroke="#2c3e50" d="M314,-171.53C314,-157.21 314,-140.36 314,-124.38"/>
<polygon fill="#2c3e50" stroke="#2c3e50" points="317.5,-124.05 314,-114.05 310.5,-124.05 317.5,-124.05"/>
</g>
</g>
</svg>
